%TF.GenerationSoftware,KiCad,Pcbnew,(5.1.8)-1*%
%TF.CreationDate,2020-12-16T21:53:35-07:00*%
%TF.ProjectId,RGBCakeBoard,52474243-616b-4654-926f-6172642e6b69,rev?*%
%TF.SameCoordinates,Original*%
%TF.FileFunction,Profile,NP*%
%FSLAX46Y46*%
G04 Gerber Fmt 4.6, Leading zero omitted, Abs format (unit mm)*
G04 Created by KiCad (PCBNEW (5.1.8)-1) date 2020-12-16 21:53:35*
%MOMM*%
%LPD*%
G01*
G04 APERTURE LIST*
%TA.AperFunction,Profile*%
%ADD10C,0.050000*%
%TD*%
%TA.AperFunction,Profile*%
%ADD11C,0.200000*%
%TD*%
G04 APERTURE END LIST*
D10*
X102638306Y-148029733D02*
X100352307Y-144070266D01*
X103431894Y-142292267D02*
X105717893Y-146251734D01*
X105717893Y-146251734D02*
X102638306Y-148029733D01*
X100352307Y-144070266D02*
X103431894Y-142292267D01*
D11*
X169060401Y-84668185D02*
X168502054Y-84234777D01*
X169479371Y-85222860D02*
X169060401Y-84668185D01*
X169826800Y-86568500D02*
X169740869Y-85866924D01*
X168502054Y-84234777D02*
X167849504Y-83963166D01*
X169740869Y-85866924D02*
X169479371Y-85222860D01*
X164579731Y-87270076D02*
X164841229Y-87914140D01*
X169479371Y-87914140D02*
X169740869Y-87270076D01*
X164579731Y-85866924D02*
X164493800Y-86568500D01*
X167160300Y-89264371D02*
X167849504Y-89173834D01*
X169826800Y-86568500D02*
X169826800Y-86568500D01*
X168502054Y-88902223D02*
X169060401Y-88468815D01*
X166471096Y-83963166D02*
X165818546Y-84234777D01*
X167160300Y-83872629D02*
X166471096Y-83963166D01*
X167849504Y-89173834D02*
X168502054Y-88902223D01*
X169740869Y-87270076D02*
X169826800Y-86568500D01*
X164841229Y-87914140D02*
X165260199Y-88468815D01*
X165818546Y-84234777D02*
X165260199Y-84668185D01*
X164841229Y-85222860D02*
X164579731Y-85866924D01*
X166471096Y-89173834D02*
X167160300Y-89264371D01*
X167849504Y-83963166D02*
X167160300Y-83872629D01*
X165260199Y-88468815D02*
X165818546Y-88902223D01*
X165818546Y-88902223D02*
X166471096Y-89173834D01*
X164493800Y-86568500D02*
X164579731Y-87270076D01*
X165260199Y-84668185D02*
X164841229Y-85222860D01*
X169060401Y-88468815D02*
X169479371Y-87914140D01*
X63000000Y-101000000D02*
X71994200Y-91567000D01*
X71994200Y-47060100D02*
X71994200Y-91567000D01*
X63000000Y-116000000D02*
X63000000Y-101000000D01*
X71994200Y-125000000D02*
X63000000Y-116000000D01*
X71994200Y-151205200D02*
X71994200Y-125000000D01*
D10*
X145478500Y-140081000D02*
X149034500Y-140081000D01*
X149034500Y-144653000D02*
X145478500Y-144653000D01*
X149034500Y-140081000D02*
X149034500Y-144653000D01*
X145478500Y-144653000D02*
X145478500Y-140081000D01*
X125285500Y-142494000D02*
X128841500Y-142494000D01*
X128841500Y-147066000D02*
X125285500Y-147066000D01*
X128841500Y-142494000D02*
X128841500Y-147066000D01*
X125285500Y-147066000D02*
X125285500Y-142494000D01*
X94742000Y-112077500D02*
X98298000Y-112077500D01*
X98298000Y-116649500D02*
X94742000Y-116649500D01*
X98298000Y-112077500D02*
X98298000Y-116649500D01*
X94742000Y-116649500D02*
X94742000Y-112077500D01*
X115125500Y-122301000D02*
X118681500Y-122301000D01*
X118681500Y-126873000D02*
X115125500Y-126873000D01*
X118681500Y-122301000D02*
X118681500Y-126873000D01*
X115125500Y-126873000D02*
X115125500Y-122301000D01*
X135382000Y-119888000D02*
X138938000Y-119888000D01*
X138938000Y-124460000D02*
X135382000Y-124460000D01*
X138938000Y-119888000D02*
X138938000Y-124460000D01*
X135382000Y-124460000D02*
X135382000Y-119888000D01*
X155765500Y-118364000D02*
X159321500Y-118364000D01*
X159321500Y-122936000D02*
X155765500Y-122936000D01*
X159321500Y-118364000D02*
X159321500Y-122936000D01*
X155765500Y-122936000D02*
X155765500Y-118364000D01*
X165925500Y-140081000D02*
X169481500Y-140081000D01*
X169481500Y-144653000D02*
X165925500Y-144653000D01*
X169481500Y-140081000D02*
X169481500Y-144653000D01*
X165925500Y-144653000D02*
X165925500Y-140081000D01*
X176022000Y-119824500D02*
X179578000Y-119824500D01*
X179578000Y-124396500D02*
X176022000Y-124396500D01*
X179578000Y-119824500D02*
X179578000Y-124396500D01*
X176022000Y-124396500D02*
X176022000Y-119824500D01*
X196405500Y-124841000D02*
X199961500Y-124841000D01*
X199961500Y-129413000D02*
X196405500Y-129413000D01*
X199961500Y-124841000D02*
X199961500Y-129413000D01*
X196405500Y-129413000D02*
X196405500Y-124841000D01*
X216725500Y-126492000D02*
X220281500Y-126492000D01*
X220281500Y-131064000D02*
X216725500Y-131064000D01*
X220281500Y-126492000D02*
X220281500Y-131064000D01*
X216725500Y-131064000D02*
X216725500Y-126492000D01*
X216662000Y-106235500D02*
X220218000Y-106235500D01*
X220218000Y-110807500D02*
X216662000Y-110807500D01*
X220218000Y-106235500D02*
X220218000Y-110807500D01*
X216662000Y-110807500D02*
X216662000Y-106235500D01*
X196405500Y-104584500D02*
X199961500Y-104584500D01*
X199961500Y-109156500D02*
X196405500Y-109156500D01*
X199961500Y-104584500D02*
X199961500Y-109156500D01*
X196405500Y-109156500D02*
X196405500Y-104584500D01*
X176022000Y-99441000D02*
X179578000Y-99441000D01*
X179578000Y-104013000D02*
X176022000Y-104013000D01*
X179578000Y-99441000D02*
X179578000Y-104013000D01*
X176022000Y-104013000D02*
X176022000Y-99441000D01*
X155765500Y-98044000D02*
X159321500Y-98044000D01*
X159321500Y-102616000D02*
X155765500Y-102616000D01*
X159321500Y-98044000D02*
X159321500Y-102616000D01*
X155765500Y-102616000D02*
X155765500Y-98044000D01*
X135382000Y-99504500D02*
X138938000Y-99504500D01*
X138938000Y-104076500D02*
X135382000Y-104076500D01*
X138938000Y-99504500D02*
X138938000Y-104076500D01*
X135382000Y-104076500D02*
X135382000Y-99504500D01*
X115125500Y-102044500D02*
X118681500Y-102044500D01*
X118681500Y-106616500D02*
X115125500Y-106616500D01*
X118681500Y-102044500D02*
X118681500Y-106616500D01*
X115125500Y-106616500D02*
X115125500Y-102044500D01*
X115062000Y-81788000D02*
X118618000Y-81788000D01*
X118618000Y-86360000D02*
X115062000Y-86360000D01*
X118618000Y-81788000D02*
X118618000Y-86360000D01*
X115062000Y-86360000D02*
X115062000Y-81788000D01*
X135382000Y-79248000D02*
X138938000Y-79248000D01*
X138938000Y-83820000D02*
X135382000Y-83820000D01*
X138938000Y-79248000D02*
X138938000Y-83820000D01*
X135382000Y-83820000D02*
X135382000Y-79248000D01*
X155829000Y-77724000D02*
X159385000Y-77724000D01*
X159385000Y-82296000D02*
X155829000Y-82296000D01*
X159385000Y-77724000D02*
X159385000Y-82296000D01*
X155829000Y-82296000D02*
X155829000Y-77724000D01*
X176022000Y-79121000D02*
X179578000Y-79121000D01*
X179578000Y-83693000D02*
X176022000Y-83693000D01*
X179578000Y-79121000D02*
X179578000Y-83693000D01*
X176022000Y-83693000D02*
X176022000Y-79121000D01*
X196405500Y-84074000D02*
X199961500Y-84074000D01*
X199961500Y-88646000D02*
X196405500Y-88646000D01*
X199961500Y-84074000D02*
X199961500Y-88646000D01*
X196405500Y-88646000D02*
X196405500Y-84074000D01*
X216662000Y-85661500D02*
X220218000Y-85661500D01*
X220218000Y-90233500D02*
X216662000Y-90233500D01*
X220218000Y-85661500D02*
X220218000Y-90233500D01*
X216662000Y-90233500D02*
X216662000Y-85661500D01*
X196342000Y-68453000D02*
X196342000Y-63881000D01*
X199898000Y-68453000D02*
X196342000Y-68453000D01*
X196342000Y-63881000D02*
X199898000Y-63881000D01*
X199898000Y-63881000D02*
X199898000Y-68453000D01*
X176022000Y-63373000D02*
X176022000Y-58801000D01*
X179578000Y-63373000D02*
X176022000Y-63373000D01*
X176022000Y-58801000D02*
X179578000Y-58801000D01*
X179578000Y-58801000D02*
X179578000Y-63373000D01*
X155829000Y-61976000D02*
X155829000Y-57404000D01*
X159385000Y-61976000D02*
X155829000Y-61976000D01*
X155829000Y-57404000D02*
X159385000Y-57404000D01*
X159385000Y-57404000D02*
X159385000Y-61976000D01*
X135382000Y-63500000D02*
X135382000Y-58928000D01*
X138938000Y-63500000D02*
X135382000Y-63500000D01*
X135382000Y-58928000D02*
X138938000Y-58928000D01*
X138938000Y-58928000D02*
X138938000Y-63500000D01*
X115062000Y-66040000D02*
X115062000Y-61468000D01*
X118618000Y-66040000D02*
X115062000Y-66040000D01*
X118618000Y-61468000D02*
X118618000Y-66040000D01*
X115062000Y-61468000D02*
X118618000Y-61468000D01*
D11*
X227467571Y-140106260D02*
X227048601Y-139551585D01*
X227729069Y-140750324D02*
X227467571Y-140106260D01*
X76252657Y-156430141D02*
X77327500Y-156538500D01*
X72905053Y-154187091D02*
X73556296Y-154976404D01*
X222567931Y-47874676D02*
X222829429Y-48518740D01*
X72413325Y-153281156D02*
X72905053Y-154187091D01*
X75251544Y-156119375D02*
X76252657Y-156430141D01*
X225837704Y-49778434D02*
X226490254Y-49506823D01*
X74345609Y-155627648D02*
X75251544Y-156119375D01*
X225148500Y-49868971D02*
X225837704Y-49778434D01*
X223248399Y-49073415D02*
X223806746Y-49506823D01*
X223806746Y-44839377D02*
X223248399Y-45272785D01*
X225837704Y-44567766D02*
X225148500Y-44477229D01*
X226490254Y-49506823D02*
X227048601Y-49073415D01*
X224459296Y-49778434D02*
X225148500Y-49868971D01*
X224459296Y-44567766D02*
X223806746Y-44839377D01*
X222482000Y-47173100D02*
X222567931Y-47874676D01*
X222829429Y-48518740D02*
X223248399Y-49073415D01*
X224459296Y-144057234D02*
X225148500Y-144147771D01*
X223806746Y-143785623D02*
X224459296Y-144057234D01*
X223806746Y-49506823D02*
X224459296Y-49778434D01*
X222567931Y-142153476D02*
X222829429Y-142797540D01*
X227815000Y-141451900D02*
X227729069Y-140750324D01*
X73556296Y-154976404D02*
X74345609Y-155627648D01*
X222567931Y-46471524D02*
X222482000Y-47173100D01*
X222829429Y-45827460D02*
X222567931Y-46471524D01*
X223248399Y-143352215D02*
X223806746Y-143785623D01*
X222829429Y-142797540D02*
X223248399Y-143352215D01*
X227729069Y-47874676D02*
X227815000Y-47173100D01*
X222482000Y-141451900D02*
X222567931Y-142153476D01*
X72102559Y-152280043D02*
X72413325Y-153281156D01*
X223806746Y-139118177D02*
X223248399Y-139551585D01*
X225837704Y-138846566D02*
X225148500Y-138756029D01*
X227815000Y-47173100D02*
X227815000Y-47173100D01*
X223248399Y-45272785D02*
X222829429Y-45827460D01*
X71994200Y-151205200D02*
X72102559Y-152280043D01*
X222567931Y-140750324D02*
X222482000Y-141451900D01*
X222829429Y-140106260D02*
X222567931Y-140750324D01*
X227048601Y-49073415D02*
X227467571Y-48518740D01*
X223248399Y-139551585D02*
X222829429Y-140106260D01*
X224459296Y-138846566D02*
X223806746Y-139118177D01*
X227467571Y-48518740D02*
X227729069Y-47874676D01*
X225148500Y-44477229D02*
X224459296Y-44567766D01*
X227048601Y-139551585D02*
X226490254Y-139118177D01*
X225148500Y-138756029D02*
X224459296Y-138846566D01*
X226490254Y-139118177D02*
X225837704Y-138846566D01*
X230373597Y-46098344D02*
X230062819Y-45097313D01*
X79994200Y-50727100D02*
X79994200Y-50727100D01*
X79639375Y-52063514D02*
X79903476Y-51424333D01*
X78662988Y-53042580D02*
X79219884Y-52613358D01*
X78013312Y-48142758D02*
X77327550Y-48053137D01*
X75015724Y-49390686D02*
X74751624Y-50029867D01*
X75992112Y-53042580D02*
X76641788Y-53311442D01*
X79219884Y-48840842D02*
X78662988Y-48411620D01*
X74660900Y-50727100D02*
X74751624Y-51424333D01*
X79219884Y-52613358D02*
X79639375Y-52063514D01*
X77327550Y-53401063D02*
X78013312Y-53311442D01*
X75435216Y-52613358D02*
X75992112Y-53042580D01*
X79903476Y-51424333D02*
X79994200Y-50727100D01*
X74751624Y-51424333D02*
X75015724Y-52063514D01*
X76641788Y-53311442D02*
X77327550Y-53401063D01*
X75435216Y-48840842D02*
X75015724Y-49390686D01*
X228130650Y-42750993D02*
X227224787Y-42259281D01*
X228919904Y-43402196D02*
X228130650Y-42750993D01*
X75992112Y-48411620D02*
X75435216Y-48840842D01*
X230062819Y-45097313D02*
X229571107Y-44191450D01*
X230482000Y-47173100D02*
X230373597Y-46098344D01*
X75015724Y-52063514D02*
X75435216Y-52613358D01*
X74751624Y-50029867D02*
X74660900Y-50727100D01*
X78013312Y-53311442D02*
X78662988Y-53042580D01*
X76641788Y-48142758D02*
X75992112Y-48411620D01*
X78662988Y-48411620D02*
X78013312Y-48142758D01*
X77327550Y-48053137D02*
X76641788Y-48142758D01*
X229571107Y-44191450D02*
X228919904Y-43402196D01*
X78013312Y-148620858D02*
X77327550Y-148531237D01*
X79219884Y-153091458D02*
X79639375Y-152541614D01*
X76641788Y-153789542D02*
X77327550Y-153879163D01*
X74660900Y-151205200D02*
X74751624Y-151902433D01*
X225149000Y-146785200D02*
X226223797Y-146676789D01*
X75992112Y-148889720D02*
X75435216Y-149318942D01*
X99714865Y-40158882D02*
X90363437Y-41995508D01*
X227048601Y-143352215D02*
X227467571Y-142797540D01*
X76641788Y-148620858D02*
X75992112Y-148889720D01*
X186577000Y-146785200D02*
X225149000Y-146785200D01*
X179651000Y-150785400D02*
X176524000Y-152590600D01*
X117424700Y-152590600D02*
X176524000Y-152590600D01*
X225148500Y-144147771D02*
X225837704Y-144057234D01*
X226490254Y-143785623D02*
X227048601Y-143352215D01*
X81118919Y-44284481D02*
X71994200Y-47060100D01*
X147624650Y-36560475D02*
X137931963Y-36649858D01*
X229571211Y-144433696D02*
X230062905Y-143527783D01*
X176828719Y-37634435D02*
X167085915Y-37087063D01*
X157346930Y-36717643D02*
X147624650Y-36560475D01*
X227224860Y-146365989D02*
X228130745Y-145874243D01*
X225837704Y-144057234D02*
X226490254Y-143785623D01*
X205951182Y-40001270D02*
X186562456Y-38325459D01*
X109160319Y-38740303D02*
X99714865Y-40158882D01*
X90363437Y-41995508D02*
X81118919Y-44284481D01*
X79639375Y-49390686D02*
X79219884Y-48840842D01*
X79994200Y-151205200D02*
X79994200Y-151205200D01*
X227467571Y-142797540D02*
X227729069Y-142153476D01*
X71994200Y-47060100D02*
X71994200Y-47060100D01*
X79639375Y-152541614D02*
X79903476Y-151902433D01*
X78013312Y-153789542D02*
X78662988Y-153520680D01*
X77327550Y-153879163D02*
X78013312Y-153789542D01*
X75015724Y-152541614D02*
X75435216Y-153091458D01*
X118686910Y-37705472D02*
X109160319Y-38740303D01*
X230373649Y-142526703D02*
X230482000Y-141451900D01*
X128281753Y-37020090D02*
X118686910Y-37705472D01*
X79903476Y-150507967D02*
X79639375Y-149868786D01*
X186562456Y-38325459D02*
X176828719Y-37634435D01*
X227815000Y-141451900D02*
X227815000Y-141451900D01*
X75015724Y-149868786D02*
X74751624Y-150507967D01*
X230482000Y-50357100D02*
X230482000Y-47173100D01*
X227729069Y-142153476D02*
X227815000Y-141451900D01*
X78662988Y-148889720D02*
X78013312Y-148620858D01*
X225149000Y-41840100D02*
X205951182Y-40001270D01*
X230062905Y-143527783D02*
X230373649Y-142526703D01*
X75992112Y-153520680D02*
X76641788Y-153789542D01*
X228130745Y-145874243D02*
X228920010Y-145222998D01*
X79639375Y-149868786D02*
X79219884Y-149318942D01*
X137931963Y-36649858D02*
X128281753Y-37020090D01*
X79219884Y-149318942D02*
X78662988Y-148889720D01*
X74751624Y-151902433D02*
X75015724Y-152541614D01*
X74751624Y-150507967D02*
X74660900Y-151205200D01*
X77327550Y-148531237D02*
X76641788Y-148620858D01*
X179651000Y-150785400D02*
X186577000Y-146785200D01*
X75435216Y-153091458D02*
X75992112Y-153520680D01*
X79994200Y-151205200D02*
X79903476Y-150507967D01*
X167085915Y-37087063D02*
X157346930Y-36717643D01*
X226223797Y-146676789D02*
X227224860Y-146365989D01*
X228920010Y-145222998D02*
X229571211Y-144433696D01*
X79903476Y-50029867D02*
X79639375Y-49390686D01*
X79994200Y-50727100D02*
X79903476Y-50029867D01*
X79903476Y-151902433D02*
X79994200Y-151205200D01*
X78662988Y-153520680D02*
X79219884Y-153091458D01*
X75435216Y-149318942D02*
X75015724Y-149868786D01*
X226223756Y-41948503D02*
X225149000Y-41840100D01*
X227224787Y-42259281D02*
X226223756Y-41948503D01*
X230482000Y-141451900D02*
X230482000Y-50357100D01*
X105281000Y-152590600D02*
X98444600Y-156538500D01*
X226490254Y-44839377D02*
X225837704Y-44567766D01*
X227815000Y-47173100D02*
X227729069Y-46471524D01*
X227048601Y-45272785D02*
X226490254Y-44839377D01*
X227467571Y-45827460D02*
X227048601Y-45272785D01*
X227729069Y-46471524D02*
X227467571Y-45827460D01*
X98444600Y-156538500D02*
X77327500Y-156538500D01*
X105281000Y-152590600D02*
X117424700Y-152590600D01*
M02*
