%TF.GenerationSoftware,KiCad,Pcbnew,(5.1.8)-1*%
%TF.CreationDate,2020-12-16T21:53:35-07:00*%
%TF.ProjectId,RGBCakeBoard,52474243-616b-4654-926f-6172642e6b69,rev?*%
%TF.SameCoordinates,Original*%
%TF.FileFunction,Legend,Bot*%
%TF.FilePolarity,Positive*%
%FSLAX46Y46*%
G04 Gerber Fmt 4.6, Leading zero omitted, Abs format (unit mm)*
G04 Created by KiCad (PCBNEW (5.1.8)-1) date 2020-12-16 21:53:35*
%MOMM*%
%LPD*%
G01*
G04 APERTURE LIST*
%ADD10C,0.200000*%
%ADD11C,0.300000*%
%ADD12C,0.150000*%
%ADD13C,0.120000*%
%ADD14C,0.250000*%
G04 APERTURE END LIST*
D10*
X78841600Y-122631200D02*
X79044542Y-122613215D01*
X79044542Y-122613215D02*
X79248646Y-122628805D01*
X79248646Y-122628805D02*
X79453461Y-122664831D01*
X79453461Y-122664831D02*
X79567387Y-122688841D01*
X78132615Y-123869389D02*
X78309394Y-123762243D01*
X78309394Y-123762243D02*
X78486557Y-123664330D01*
X78486557Y-123664330D02*
X78686791Y-123576715D01*
X78686791Y-123576715D02*
X78843532Y-123533152D01*
X78134298Y-131143817D02*
X78134298Y-119014804D01*
X77026358Y-137864932D02*
X76744806Y-137869038D01*
X76744806Y-137869038D02*
X76478722Y-137866750D01*
X76478722Y-137866750D02*
X76227606Y-137858272D01*
X76227606Y-137858272D02*
X75990959Y-137843812D01*
X75990959Y-137843812D02*
X75768282Y-137823575D01*
X75768282Y-137823575D02*
X75559076Y-137797768D01*
X75559076Y-137797768D02*
X75179083Y-137730267D01*
X75179083Y-137730267D02*
X74846987Y-137642961D01*
X74846987Y-137642961D02*
X74558797Y-137537498D01*
X74558797Y-137537498D02*
X74310521Y-137415530D01*
X74310521Y-137415530D02*
X74098168Y-137278705D01*
X74098168Y-137278705D02*
X73917746Y-137128674D01*
X73917746Y-137128674D02*
X73765263Y-136967087D01*
X73765263Y-136967087D02*
X73636728Y-136795594D01*
X73636728Y-136795594D02*
X73528149Y-136615846D01*
X73528149Y-136615846D02*
X73435535Y-136429491D01*
X73435535Y-136429491D02*
X73354894Y-136238181D01*
X73354894Y-136238181D02*
X73282233Y-136043564D01*
X73282233Y-136043564D02*
X73213563Y-135847293D01*
X78833875Y-121765944D02*
X79036818Y-121747959D01*
X79036818Y-121747959D02*
X79240921Y-121763549D01*
X79240921Y-121763549D02*
X79445735Y-121799575D01*
X79445735Y-121799575D02*
X79559662Y-121823585D01*
X79602139Y-131143817D02*
X79411765Y-131284537D01*
X79411765Y-131284537D02*
X79192358Y-131377105D01*
X79192358Y-131377105D02*
X78980765Y-131406556D01*
X78980765Y-131406556D02*
X78737407Y-131383323D01*
X78737407Y-131383323D02*
X78516305Y-131320927D01*
X78516305Y-131320927D02*
X78268797Y-131214735D01*
X78268797Y-131214735D02*
X78134298Y-131143817D01*
X75112880Y-133232076D02*
X75094622Y-133438612D01*
X75094622Y-133438612D02*
X75081195Y-133653513D01*
X75081195Y-133653513D02*
X75070027Y-133899921D01*
X75070027Y-133899921D02*
X75061315Y-134143080D01*
X75061315Y-134143080D02*
X75052255Y-134446901D01*
X75052255Y-134446901D02*
X75045994Y-134687880D01*
X75045994Y-134687880D02*
X75039537Y-134962916D01*
X75039537Y-134962916D02*
X75032867Y-135274848D01*
X75032867Y-135274848D02*
X75025969Y-135626513D01*
X75025969Y-135626513D02*
X75018826Y-136020752D01*
X79602139Y-119014804D02*
X79602139Y-131143817D01*
X78857749Y-115587379D02*
X78755826Y-115820083D01*
X78755826Y-115820083D02*
X78656995Y-116051441D01*
X78656995Y-116051441D02*
X78564352Y-116280098D01*
X78564352Y-116280098D02*
X78480991Y-116504698D01*
X78480991Y-116504698D02*
X78410010Y-116723885D01*
X78410010Y-116723885D02*
X78354503Y-116936304D01*
X78354503Y-116936304D02*
X78317566Y-117140599D01*
X78317566Y-117140599D02*
X78302296Y-117335415D01*
X77088162Y-142639283D02*
X76806610Y-142643389D01*
X76806610Y-142643389D02*
X76540526Y-142641101D01*
X76540526Y-142641101D02*
X76289410Y-142632623D01*
X76289410Y-142632623D02*
X76052763Y-142618162D01*
X76052763Y-142618162D02*
X75830086Y-142597925D01*
X75830086Y-142597925D02*
X75620880Y-142572118D01*
X75620880Y-142572118D02*
X75240887Y-142504618D01*
X75240887Y-142504618D02*
X74908791Y-142417311D01*
X74908791Y-142417311D02*
X74620601Y-142311848D01*
X74620601Y-142311848D02*
X74372326Y-142189880D01*
X74372326Y-142189880D02*
X74159973Y-142053055D01*
X74159973Y-142053055D02*
X73979551Y-141903024D01*
X73979551Y-141903024D02*
X73827068Y-141741438D01*
X73827068Y-141741438D02*
X73698533Y-141569945D01*
X73698533Y-141569945D02*
X73589955Y-141390197D01*
X73589955Y-141390197D02*
X73497341Y-141203842D01*
X73497341Y-141203842D02*
X73416699Y-141012532D01*
X73416699Y-141012532D02*
X73344039Y-140817916D01*
X73344039Y-140817916D02*
X73275369Y-140621645D01*
X78134298Y-119014804D02*
X78360017Y-118911371D01*
X78360017Y-118911371D02*
X78551163Y-118848524D01*
X78551163Y-118848524D02*
X78762023Y-118816384D01*
X78762023Y-118816384D02*
X78973737Y-118837086D01*
X78973737Y-118837086D02*
X79186306Y-118910633D01*
X79186306Y-118910633D02*
X79396361Y-118987131D01*
X79396361Y-118987131D02*
X79602139Y-119014804D01*
X91799891Y-140150624D02*
X91255096Y-140263557D01*
X91255096Y-140263557D02*
X90710799Y-140376284D01*
X90710799Y-140376284D02*
X90167498Y-140488599D01*
X90167498Y-140488599D02*
X89625694Y-140600295D01*
X89625694Y-140600295D02*
X89085884Y-140711167D01*
X89085884Y-140711167D02*
X88548568Y-140821008D01*
X88548568Y-140821008D02*
X88014244Y-140929611D01*
X88014244Y-140929611D02*
X87483412Y-141036771D01*
X87483412Y-141036771D02*
X86956570Y-141142281D01*
X86956570Y-141142281D02*
X86434217Y-141245935D01*
X86434217Y-141245935D02*
X85916853Y-141347526D01*
X85916853Y-141347526D02*
X85404976Y-141446849D01*
X85404976Y-141446849D02*
X84899086Y-141543698D01*
X84899086Y-141543698D02*
X84399680Y-141637865D01*
X84399680Y-141637865D02*
X83907259Y-141729145D01*
X83907259Y-141729145D02*
X83422321Y-141817331D01*
X83422321Y-141817331D02*
X82945365Y-141902217D01*
X82945365Y-141902217D02*
X82476890Y-141983598D01*
X82476890Y-141983598D02*
X82017395Y-142061266D01*
X82017395Y-142061266D02*
X81567379Y-142135015D01*
X81567379Y-142135015D02*
X81127341Y-142204640D01*
X81127341Y-142204640D02*
X80697780Y-142269933D01*
X80697780Y-142269933D02*
X80279194Y-142330689D01*
X80279194Y-142330689D02*
X79872083Y-142386702D01*
X79872083Y-142386702D02*
X79476946Y-142437765D01*
X79476946Y-142437765D02*
X79094282Y-142483671D01*
X79094282Y-142483671D02*
X78724589Y-142524216D01*
X78724589Y-142524216D02*
X78368366Y-142559191D01*
X78368366Y-142559191D02*
X78026114Y-142588392D01*
X78026114Y-142588392D02*
X77698329Y-142611612D01*
X77698329Y-142611612D02*
X77385512Y-142628644D01*
X77385512Y-142628644D02*
X77088162Y-142639283D01*
X91738085Y-135376273D02*
X91193290Y-135489205D01*
X91193290Y-135489205D02*
X90648993Y-135601932D01*
X90648993Y-135601932D02*
X90105693Y-135714247D01*
X90105693Y-135714247D02*
X89563889Y-135825943D01*
X89563889Y-135825943D02*
X89024079Y-135936815D01*
X89024079Y-135936815D02*
X88486762Y-136046655D01*
X88486762Y-136046655D02*
X87952439Y-136155258D01*
X87952439Y-136155258D02*
X87421607Y-136262418D01*
X87421607Y-136262418D02*
X86894765Y-136367928D01*
X86894765Y-136367928D02*
X86372412Y-136471582D01*
X86372412Y-136471582D02*
X85855048Y-136573173D01*
X85855048Y-136573173D02*
X85343172Y-136672497D01*
X85343172Y-136672497D02*
X84837281Y-136769345D01*
X84837281Y-136769345D02*
X84337876Y-136863512D01*
X84337876Y-136863512D02*
X83845455Y-136954792D01*
X83845455Y-136954792D02*
X83360517Y-137042978D01*
X83360517Y-137042978D02*
X82883561Y-137127865D01*
X82883561Y-137127865D02*
X82415086Y-137209245D01*
X82415086Y-137209245D02*
X81955591Y-137286914D01*
X81955591Y-137286914D02*
X81505575Y-137360663D01*
X81505575Y-137360663D02*
X81065537Y-137430288D01*
X81065537Y-137430288D02*
X80635975Y-137495582D01*
X80635975Y-137495582D02*
X80217390Y-137556338D01*
X80217390Y-137556338D02*
X79810279Y-137612350D01*
X79810279Y-137612350D02*
X79415142Y-137663413D01*
X79415142Y-137663413D02*
X79032477Y-137709320D01*
X79032477Y-137709320D02*
X78662784Y-137749864D01*
X78662784Y-137749864D02*
X78306562Y-137784840D01*
X78306562Y-137784840D02*
X77964309Y-137814041D01*
X77964309Y-137814041D02*
X77636525Y-137837261D01*
X77636525Y-137837261D02*
X77323708Y-137854293D01*
X77323708Y-137854293D02*
X77026358Y-137864932D01*
X79648178Y-118051687D02*
X79633235Y-117840853D01*
X79633235Y-117840853D02*
X79584744Y-117591127D01*
X79584744Y-117591127D02*
X79529243Y-117381654D01*
X79529243Y-117381654D02*
X79459591Y-117155777D01*
X79459591Y-117155777D02*
X79377809Y-116915841D01*
X79377809Y-116915841D02*
X79285920Y-116664192D01*
X79285920Y-116664192D02*
X79185947Y-116403176D01*
X79185947Y-116403176D02*
X79079912Y-116135138D01*
X79079912Y-116135138D02*
X78969839Y-115862424D01*
X78969839Y-115862424D02*
X78857749Y-115587379D01*
X78140343Y-121240794D02*
X78317120Y-121133646D01*
X78317120Y-121133646D02*
X78494283Y-121035732D01*
X78494283Y-121035732D02*
X78694515Y-120948117D01*
X78694515Y-120948117D02*
X78851257Y-120904554D01*
X75018826Y-136020752D02*
X75015157Y-136234604D01*
X75015157Y-136234604D02*
X75011426Y-136459452D01*
X75011426Y-136459452D02*
X75007633Y-136694943D01*
X75007633Y-136694943D02*
X75003781Y-136940721D01*
X75003781Y-136940721D02*
X74999872Y-137196432D01*
X74999872Y-137196432D02*
X74995907Y-137461720D01*
X74995907Y-137461720D02*
X74991890Y-137736232D01*
X74991890Y-137736232D02*
X74987821Y-138019611D01*
X74987821Y-138019611D02*
X74983703Y-138311504D01*
X74983703Y-138311504D02*
X74979538Y-138611556D01*
X74979538Y-138611556D02*
X74975328Y-138919412D01*
X74975328Y-138919412D02*
X74971075Y-139234717D01*
X74971075Y-139234717D02*
X74966781Y-139557116D01*
X74966781Y-139557116D02*
X74962449Y-139886255D01*
X74962449Y-139886255D02*
X74958079Y-140221778D01*
X74958079Y-140221778D02*
X74953675Y-140563332D01*
X74953675Y-140563332D02*
X74949238Y-140910561D01*
X74949238Y-140910561D02*
X74944771Y-141263111D01*
X74944771Y-141263111D02*
X74940274Y-141620626D01*
X74940274Y-141620626D02*
X74935752Y-141982753D01*
X74935752Y-141982753D02*
X74931204Y-142349135D01*
X74931204Y-142349135D02*
X74926634Y-142719419D01*
X74926634Y-142719419D02*
X74922044Y-143093250D01*
X74922044Y-143093250D02*
X74917436Y-143470273D01*
X74917436Y-143470273D02*
X74912811Y-143850133D01*
X74912811Y-143850133D02*
X74908171Y-144232476D01*
X74908171Y-144232476D02*
X74903520Y-144616946D01*
X74903520Y-144616946D02*
X74898858Y-145003189D01*
X74898858Y-145003189D02*
X74894188Y-145390850D01*
X74894188Y-145390850D02*
X74889512Y-145779574D01*
X74889512Y-145779574D02*
X74884832Y-146169008D01*
X74884832Y-146169008D02*
X74880150Y-146558795D01*
X78122958Y-122102184D02*
X78299737Y-121995036D01*
X78299737Y-121995036D02*
X78476900Y-121897122D01*
X78476900Y-121897122D02*
X78677133Y-121809507D01*
X78677133Y-121809507D02*
X78833875Y-121765944D01*
X73211443Y-131324132D02*
X73212891Y-131728755D01*
X73212891Y-131728755D02*
X73214339Y-132133379D01*
X73214339Y-132133379D02*
X73215788Y-132538005D01*
X73215788Y-132538005D02*
X73217236Y-132942632D01*
X73217236Y-132942632D02*
X73218685Y-133347259D01*
X73218685Y-133347259D02*
X73220133Y-133751887D01*
X73220133Y-133751887D02*
X73221582Y-134156516D01*
X73221582Y-134156516D02*
X73223030Y-134561146D01*
X73223030Y-134561146D02*
X73224479Y-134965776D01*
X73224479Y-134965776D02*
X73225927Y-135370406D01*
X73225927Y-135370406D02*
X73227376Y-135775036D01*
X73227376Y-135775036D02*
X73228824Y-136179666D01*
X73228824Y-136179666D02*
X73230273Y-136584296D01*
X73230273Y-136584296D02*
X73231721Y-136988926D01*
X73231721Y-136988926D02*
X73233170Y-137393555D01*
X73233170Y-137393555D02*
X73234619Y-137798183D01*
X73234619Y-137798183D02*
X73236067Y-138202811D01*
X73236067Y-138202811D02*
X73237516Y-138607438D01*
X73237516Y-138607438D02*
X73238964Y-139012064D01*
X73238964Y-139012064D02*
X73240413Y-139416689D01*
X73240413Y-139416689D02*
X73241861Y-139821312D01*
X73241861Y-139821312D02*
X73243310Y-140225935D01*
X73243310Y-140225935D02*
X73244758Y-140630555D01*
X73244758Y-140630555D02*
X73246207Y-141035174D01*
X73246207Y-141035174D02*
X73247655Y-141439791D01*
X73247655Y-141439791D02*
X73249104Y-141844406D01*
X73249104Y-141844406D02*
X73250552Y-142249019D01*
X73250552Y-142249019D02*
X73252001Y-142653630D01*
X73252001Y-142653630D02*
X73253449Y-143058239D01*
X73253449Y-143058239D02*
X73254898Y-143462845D01*
X73254898Y-143462845D02*
X73256346Y-143867448D01*
X73256346Y-143867448D02*
X73257795Y-144272049D01*
X74450187Y-129959349D02*
X74237267Y-130060002D01*
X74237267Y-130060002D02*
X74052909Y-130168707D01*
X74052909Y-130168707D02*
X73846420Y-130324732D01*
X73846420Y-130324732D02*
X73678450Y-130491619D01*
X73678450Y-130491619D02*
X73541993Y-130667394D01*
X73541993Y-130667394D02*
X73430046Y-130850086D01*
X73430046Y-130850086D02*
X73335604Y-131037722D01*
X73335604Y-131037722D02*
X73251664Y-131228330D01*
X73251664Y-131228330D02*
X73211443Y-131324132D01*
X78130687Y-122967441D02*
X78307464Y-122860293D01*
X78307464Y-122860293D02*
X78484626Y-122762378D01*
X78484626Y-122762378D02*
X78684859Y-122674763D01*
X78684859Y-122674763D02*
X78841600Y-122631200D01*
X78139472Y-120435650D02*
X78316251Y-120328502D01*
X78316251Y-120328502D02*
X78493414Y-120230588D01*
X78493414Y-120230588D02*
X78693647Y-120142972D01*
X78693647Y-120142972D02*
X78850388Y-120099410D01*
X78843532Y-123533152D02*
X79046474Y-123515166D01*
X79046474Y-123515166D02*
X79250578Y-123530755D01*
X79250578Y-123530755D02*
X79455392Y-123566780D01*
X79455392Y-123566780D02*
X79569319Y-123590790D01*
X78850388Y-120099410D02*
X79053330Y-120081425D01*
X79053330Y-120081425D02*
X79257434Y-120097014D01*
X79257434Y-120097014D02*
X79462249Y-120133040D01*
X79462249Y-120133040D02*
X79576176Y-120157050D01*
X78302296Y-117335415D02*
X78316668Y-117563609D01*
X78316668Y-117563609D02*
X78365520Y-117772677D01*
X78365520Y-117772677D02*
X78444683Y-117960434D01*
X78444683Y-117960434D02*
X78573821Y-118154538D01*
X78573821Y-118154538D02*
X78733401Y-118311039D01*
X78733401Y-118311039D02*
X78884444Y-118410010D01*
X78851257Y-120904554D02*
X79054200Y-120886567D01*
X79054200Y-120886567D02*
X79258304Y-120902156D01*
X79258304Y-120902156D02*
X79463118Y-120938182D01*
X79463118Y-120938182D02*
X79577044Y-120962192D01*
X91675355Y-131339585D02*
X91250526Y-131274901D01*
X91250526Y-131274901D02*
X90825983Y-131210296D01*
X90825983Y-131210296D02*
X90402010Y-131145849D01*
X90402010Y-131145849D02*
X89978894Y-131081639D01*
X89978894Y-131081639D02*
X89556921Y-131017746D01*
X89556921Y-131017746D02*
X89136377Y-130954247D01*
X89136377Y-130954247D02*
X88717548Y-130891223D01*
X88717548Y-130891223D02*
X88300719Y-130828753D01*
X88300719Y-130828753D02*
X87886177Y-130766915D01*
X87886177Y-130766915D02*
X87474208Y-130705789D01*
X87474208Y-130705789D02*
X87065098Y-130645454D01*
X87065098Y-130645454D02*
X86659132Y-130585988D01*
X86659132Y-130585988D02*
X86256597Y-130527472D01*
X86256597Y-130527472D02*
X85857779Y-130469983D01*
X85857779Y-130469983D02*
X85462963Y-130413602D01*
X85462963Y-130413602D02*
X85072436Y-130358406D01*
X85072436Y-130358406D02*
X84686484Y-130304477D01*
X84686484Y-130304477D02*
X84305392Y-130251891D01*
X84305392Y-130251891D02*
X83929447Y-130200729D01*
X83929447Y-130200729D02*
X83558935Y-130151070D01*
X83558935Y-130151070D02*
X83194141Y-130102992D01*
X83194141Y-130102992D02*
X82835352Y-130056576D01*
X82835352Y-130056576D02*
X82482853Y-130011899D01*
X82482853Y-130011899D02*
X82136931Y-129969041D01*
X82136931Y-129969041D02*
X81797871Y-129928081D01*
X81797871Y-129928081D02*
X81465960Y-129889098D01*
X81465960Y-129889098D02*
X81141484Y-129852172D01*
X81141484Y-129852172D02*
X80824728Y-129817381D01*
X80824728Y-129817381D02*
X80515978Y-129784804D01*
X80515978Y-129784804D02*
X80215521Y-129754521D01*
X80215521Y-129754521D02*
X79923642Y-129726611D01*
X79923642Y-129726611D02*
X79640628Y-129701153D01*
X78884444Y-118410010D02*
X79079087Y-118486699D01*
X79079087Y-118486699D02*
X79302048Y-118506110D01*
X79302048Y-118506110D02*
X79491226Y-118434352D01*
X79491226Y-118434352D02*
X79615808Y-118254919D01*
X79615808Y-118254919D02*
X79648178Y-118051687D01*
X77048555Y-146919440D02*
X76768630Y-146924826D01*
X76768630Y-146924826D02*
X76504083Y-146921822D01*
X76504083Y-146921822D02*
X76254418Y-146910696D01*
X76254418Y-146910696D02*
X76019139Y-146891721D01*
X76019139Y-146891721D02*
X75797748Y-146865166D01*
X75797748Y-146865166D02*
X75589752Y-146831303D01*
X75589752Y-146831303D02*
X75211954Y-146742731D01*
X75211954Y-146742731D02*
X74881777Y-146628173D01*
X74881777Y-146628173D02*
X74595252Y-146489791D01*
X74595252Y-146489791D02*
X74348411Y-146329752D01*
X74348411Y-146329752D02*
X74137285Y-146150221D01*
X74137285Y-146150221D02*
X73957905Y-145953362D01*
X73957905Y-145953362D02*
X73806304Y-145741341D01*
X73806304Y-145741341D02*
X73678512Y-145516322D01*
X73678512Y-145516322D02*
X73570561Y-145280472D01*
X73570561Y-145280472D02*
X73478482Y-145035954D01*
X73478482Y-145035954D02*
X73398307Y-144784934D01*
X73398307Y-144784934D02*
X73326067Y-144529577D01*
X73326067Y-144529577D02*
X73257795Y-144272049D01*
X91736792Y-131483151D02*
X91176070Y-131574843D01*
X91176070Y-131574843D02*
X90615879Y-131666350D01*
X90615879Y-131666350D02*
X90056749Y-131757489D01*
X90056749Y-131757489D02*
X89499208Y-131848073D01*
X89499208Y-131848073D02*
X88943786Y-131937920D01*
X88943786Y-131937920D02*
X88391014Y-132026843D01*
X88391014Y-132026843D02*
X87841422Y-132114660D01*
X87841422Y-132114660D02*
X87295538Y-132201184D01*
X87295538Y-132201184D02*
X86753894Y-132286232D01*
X86753894Y-132286232D02*
X86217018Y-132369619D01*
X86217018Y-132369619D02*
X85685441Y-132451161D01*
X85685441Y-132451161D02*
X85159693Y-132530673D01*
X85159693Y-132530673D02*
X84640302Y-132607970D01*
X84640302Y-132607970D02*
X84127800Y-132682867D01*
X84127800Y-132682867D02*
X83622716Y-132755182D01*
X83622716Y-132755182D02*
X83125579Y-132824728D01*
X83125579Y-132824728D02*
X82636920Y-132891321D01*
X82636920Y-132891321D02*
X82157269Y-132954777D01*
X82157269Y-132954777D02*
X81687154Y-133014911D01*
X81687154Y-133014911D02*
X81227107Y-133071538D01*
X81227107Y-133071538D02*
X80777656Y-133124475D01*
X80777656Y-133124475D02*
X80339333Y-133173537D01*
X80339333Y-133173537D02*
X79912665Y-133218538D01*
X79912665Y-133218538D02*
X79498184Y-133259294D01*
X79498184Y-133259294D02*
X79096420Y-133295622D01*
X79096420Y-133295622D02*
X78707901Y-133327336D01*
X78707901Y-133327336D02*
X78333158Y-133354252D01*
X78333158Y-133354252D02*
X77972721Y-133376185D01*
X77972721Y-133376185D02*
X77627119Y-133392950D01*
X77627119Y-133392950D02*
X77296882Y-133404364D01*
X77296882Y-133404364D02*
X76982541Y-133410242D01*
X76982541Y-133410242D02*
X76684625Y-133410399D01*
X76684625Y-133410399D02*
X76403488Y-133404709D01*
X76403488Y-133404709D02*
X76138781Y-133393296D01*
X76138781Y-133393296D02*
X75889973Y-133376344D01*
X75889973Y-133376344D02*
X75656533Y-133354036D01*
X75656533Y-133354036D02*
X75437933Y-133326558D01*
X75437933Y-133326558D02*
X75233641Y-133294095D01*
X75233641Y-133294095D02*
X74865866Y-133214951D01*
X74865866Y-133214951D02*
X74548967Y-133118082D01*
X74548967Y-133118082D02*
X74278705Y-133004965D01*
X74278705Y-133004965D02*
X74050841Y-132877078D01*
X74050841Y-132877078D02*
X73861135Y-132735898D01*
X73861135Y-132735898D02*
X73705346Y-132582903D01*
X73705346Y-132582903D02*
X73579237Y-132419571D01*
X73579237Y-132419571D02*
X73436445Y-132158421D01*
X73436445Y-132158421D02*
X73336582Y-131882324D01*
X73336582Y-131882324D02*
X73265339Y-131596265D01*
X73265339Y-131596265D02*
X73208407Y-131305232D01*
X79640628Y-129701153D02*
X79366687Y-129678204D01*
X79366687Y-129678204D02*
X79101722Y-129657738D01*
X79101722Y-129657738D02*
X78845556Y-129639708D01*
X78845556Y-129639708D02*
X78598012Y-129624064D01*
X78598012Y-129624064D02*
X78358913Y-129610759D01*
X78358913Y-129610759D02*
X78128083Y-129599744D01*
X78128083Y-129599744D02*
X77905345Y-129590971D01*
X77905345Y-129590971D02*
X77690523Y-129584392D01*
X77690523Y-129584392D02*
X77483440Y-129579959D01*
X77483440Y-129579959D02*
X77091783Y-129577337D01*
X77091783Y-129577337D02*
X76728962Y-129582720D01*
X76728962Y-129582720D02*
X76393564Y-129595721D01*
X76393564Y-129595721D02*
X76084175Y-129615956D01*
X76084175Y-129615956D02*
X75799383Y-129643038D01*
X75799383Y-129643038D02*
X75537775Y-129676583D01*
X75537775Y-129676583D02*
X75297937Y-129716203D01*
X75297937Y-129716203D02*
X75078456Y-129761514D01*
X75078456Y-129761514D02*
X74877920Y-129812130D01*
X74877920Y-129812130D02*
X74609545Y-129897157D01*
X74609545Y-129897157D02*
X74450187Y-129959349D01*
X91675355Y-131339585D02*
X91675355Y-131724433D01*
X91675355Y-131724433D02*
X91675355Y-132109280D01*
X91675355Y-132109280D02*
X91675355Y-132494125D01*
X91675355Y-132494125D02*
X91675355Y-132878969D01*
X91675355Y-132878969D02*
X91675355Y-133263812D01*
X91675355Y-133263812D02*
X91675355Y-133648653D01*
X91675355Y-133648653D02*
X91675355Y-134033492D01*
X91675355Y-134033492D02*
X91675355Y-134418331D01*
X91675355Y-134418331D02*
X91675355Y-134803167D01*
X91675355Y-134803167D02*
X91675355Y-135188003D01*
X91675355Y-135188003D02*
X91675355Y-135572836D01*
X91675355Y-135572836D02*
X91675355Y-135957669D01*
X91675355Y-135957669D02*
X91675355Y-136342500D01*
X91675355Y-136342500D02*
X91675355Y-136727329D01*
X91675355Y-136727329D02*
X91675355Y-137112157D01*
X91675355Y-137112157D02*
X91675355Y-137496984D01*
X91675355Y-137496984D02*
X91675355Y-137881809D01*
X91675355Y-137881809D02*
X91675355Y-138266632D01*
X91675355Y-138266632D02*
X91675355Y-138651454D01*
X91675355Y-138651454D02*
X91675355Y-139036275D01*
X91675355Y-139036275D02*
X91675355Y-139421094D01*
X91675355Y-139421094D02*
X91675355Y-139805912D01*
X91675355Y-139805912D02*
X91675355Y-140190728D01*
X91675355Y-140190728D02*
X91675355Y-140575543D01*
X91675355Y-140575543D02*
X91675355Y-140960357D01*
X91675355Y-140960357D02*
X91675355Y-141345169D01*
X91675355Y-141345169D02*
X91675355Y-141729979D01*
X91675355Y-141729979D02*
X91675355Y-142114789D01*
X91675355Y-142114789D02*
X91675355Y-142499596D01*
X91675355Y-142499596D02*
X91675355Y-142884402D01*
X91675355Y-142884402D02*
X91675355Y-143269207D01*
X91675355Y-143269207D02*
X91675355Y-143654011D01*
X91675355Y-143654011D02*
X91133703Y-143802194D01*
X91133703Y-143802194D02*
X90592546Y-143950107D01*
X90592546Y-143950107D02*
X90052380Y-144097479D01*
X90052380Y-144097479D02*
X89513701Y-144244040D01*
X89513701Y-144244040D02*
X88977006Y-144389518D01*
X88977006Y-144389518D02*
X88442790Y-144533643D01*
X88442790Y-144533643D02*
X87911550Y-144676145D01*
X87911550Y-144676145D02*
X87383781Y-144816753D01*
X87383781Y-144816753D02*
X86859980Y-144955196D01*
X86859980Y-144955196D02*
X86340642Y-145091203D01*
X86340642Y-145091203D02*
X85826264Y-145224504D01*
X85826264Y-145224504D02*
X85317342Y-145354829D01*
X85317342Y-145354829D02*
X84814371Y-145481906D01*
X84814371Y-145481906D02*
X84317849Y-145605465D01*
X84317849Y-145605465D02*
X83828270Y-145725236D01*
X83828270Y-145725236D02*
X83346132Y-145840948D01*
X83346132Y-145840948D02*
X82871930Y-145952329D01*
X82871930Y-145952329D02*
X82406160Y-146059110D01*
X82406160Y-146059110D02*
X81949318Y-146161020D01*
X81949318Y-146161020D02*
X81501900Y-146257789D01*
X81501900Y-146257789D02*
X81064403Y-146349144D01*
X81064403Y-146349144D02*
X80637322Y-146434817D01*
X80637322Y-146434817D02*
X80221154Y-146514536D01*
X80221154Y-146514536D02*
X79816394Y-146588031D01*
X79816394Y-146588031D02*
X79423539Y-146655031D01*
X79423539Y-146655031D02*
X79043085Y-146715265D01*
X79043085Y-146715265D02*
X78675528Y-146768464D01*
X78675528Y-146768464D02*
X78321363Y-146814355D01*
X78321363Y-146814355D02*
X77981087Y-146852669D01*
X77981087Y-146852669D02*
X77655197Y-146883135D01*
X77655197Y-146883135D02*
X77344187Y-146905482D01*
X77344187Y-146905482D02*
X77048555Y-146919440D01*
D11*
%TO.C,SW13*%
X97900000Y-112763500D02*
X99950000Y-112763500D01*
X97900000Y-114213500D02*
X97900000Y-112763500D01*
X99950000Y-114213500D02*
X97900000Y-114213500D01*
X99950000Y-112763500D02*
X99950000Y-114213500D01*
D12*
X101320000Y-106306500D02*
X96270000Y-106352500D01*
X101320000Y-106260500D02*
X101320000Y-102352500D01*
X101320000Y-102352500D02*
X92695000Y-102352500D01*
X90420000Y-104306500D02*
X90420000Y-108251500D01*
X90420000Y-108260500D02*
X94030000Y-108260500D01*
X94035001Y-108236499D02*
G75*
G02*
X96295000Y-106356500I2069999J-190000D01*
G01*
X90431000Y-104236500D02*
G75*
G02*
X92695000Y-102352500I2074000J-190000D01*
G01*
D11*
%TO.C,SW20*%
X103394558Y-142999959D02*
X105169910Y-141974959D01*
X104119558Y-144255695D02*
X103394558Y-142999959D01*
X105894910Y-143230695D02*
X104119558Y-144255695D01*
X105169910Y-141974959D02*
X105894910Y-143230695D01*
D12*
X103127865Y-135698033D02*
X98777437Y-138262870D01*
X103104865Y-135658195D02*
X101150865Y-132273768D01*
X101150865Y-132273768D02*
X93681396Y-136586268D01*
X92688188Y-139415982D02*
X94660688Y-142832452D01*
X94665188Y-142840246D02*
X97791540Y-141035246D01*
X97783870Y-141011961D02*
G75*
G02*
X98801087Y-138253834I1887672J870455D01*
G01*
X92662714Y-139349860D02*
G75*
G02*
X93681396Y-136586268I1891137J872455D01*
G01*
%TO.C,D18*%
X205484500Y-106418000D02*
X206884500Y-106418000D01*
X206884500Y-105518000D02*
X206184500Y-106418000D01*
X205484500Y-105518000D02*
X206884500Y-105518000D01*
X206184500Y-106418000D02*
X205484500Y-105518000D01*
%TO.C,J3*%
X84199500Y-89649500D02*
X72199500Y-89649500D01*
X84199500Y-83649500D02*
X84199500Y-89649500D01*
X72199500Y-83649500D02*
X84199500Y-83649500D01*
X72199500Y-89649500D02*
X72199500Y-83649500D01*
%TO.C,D57*%
X80605400Y-113934600D02*
X82005400Y-113934600D01*
X82005400Y-113034600D02*
X81305400Y-113934600D01*
X80605400Y-113034600D02*
X82005400Y-113034600D01*
X81305400Y-113934600D02*
X80605400Y-113034600D01*
D13*
%TO.C,JP5*%
X89709500Y-78551000D02*
X89709500Y-77151000D01*
X89009500Y-76451000D02*
X88409500Y-76451000D01*
X87709500Y-77151000D02*
X87709500Y-78551000D01*
X88409500Y-79251000D02*
X89009500Y-79251000D01*
X89009500Y-79251000D02*
G75*
G03*
X89709500Y-78551000I0J700000D01*
G01*
X87709500Y-78551000D02*
G75*
G03*
X88409500Y-79251000I700000J0D01*
G01*
X88409500Y-76451000D02*
G75*
G03*
X87709500Y-77151000I0J-700000D01*
G01*
X89709500Y-77151000D02*
G75*
G03*
X89009500Y-76451000I-700000J0D01*
G01*
%TO.C,JP4*%
X92313000Y-78566000D02*
X92313000Y-77166000D01*
X91613000Y-76466000D02*
X91013000Y-76466000D01*
X90313000Y-77166000D02*
X90313000Y-78566000D01*
X91013000Y-79266000D02*
X91613000Y-79266000D01*
X91613000Y-79266000D02*
G75*
G03*
X92313000Y-78566000I0J700000D01*
G01*
X90313000Y-78566000D02*
G75*
G03*
X91013000Y-79266000I700000J0D01*
G01*
X91013000Y-76466000D02*
G75*
G03*
X90313000Y-77166000I0J-700000D01*
G01*
X92313000Y-77166000D02*
G75*
G03*
X91613000Y-76466000I-700000J0D01*
G01*
%TO.C,JP3*%
X94916500Y-78566000D02*
X94916500Y-77166000D01*
X94216500Y-76466000D02*
X93616500Y-76466000D01*
X92916500Y-77166000D02*
X92916500Y-78566000D01*
X93616500Y-79266000D02*
X94216500Y-79266000D01*
X94216500Y-79266000D02*
G75*
G03*
X94916500Y-78566000I0J700000D01*
G01*
X92916500Y-78566000D02*
G75*
G03*
X93616500Y-79266000I700000J0D01*
G01*
X93616500Y-76466000D02*
G75*
G03*
X92916500Y-77166000I0J-700000D01*
G01*
X94916500Y-77166000D02*
G75*
G03*
X94216500Y-76466000I-700000J0D01*
G01*
%TO.C,JP2*%
X97520000Y-78551000D02*
X97520000Y-77151000D01*
X96820000Y-76451000D02*
X96220000Y-76451000D01*
X95520000Y-77151000D02*
X95520000Y-78551000D01*
X96220000Y-79251000D02*
X96820000Y-79251000D01*
X96820000Y-79251000D02*
G75*
G03*
X97520000Y-78551000I0J700000D01*
G01*
X95520000Y-78551000D02*
G75*
G03*
X96220000Y-79251000I700000J0D01*
G01*
X96220000Y-76451000D02*
G75*
G03*
X95520000Y-77151000I0J-700000D01*
G01*
X97520000Y-77151000D02*
G75*
G03*
X96820000Y-76451000I-700000J0D01*
G01*
D12*
%TO.C,SW16*%
X151443500Y-94227000D02*
X155053500Y-94227000D01*
X151443500Y-90273000D02*
X151443500Y-94218000D01*
X162343500Y-88319000D02*
X153718500Y-88319000D01*
X162343500Y-92227000D02*
X162343500Y-88319000D01*
X162343500Y-92273000D02*
X157293500Y-92319000D01*
D11*
X160973500Y-98730000D02*
X160973500Y-100180000D01*
X160973500Y-100180000D02*
X158923500Y-100180000D01*
X158923500Y-100180000D02*
X158923500Y-98730000D01*
X158923500Y-98730000D02*
X160973500Y-98730000D01*
D12*
X155058501Y-94202999D02*
G75*
G02*
X157318500Y-92323000I2069999J-190000D01*
G01*
X151454500Y-90203000D02*
G75*
G02*
X153718500Y-88319000I2074000J-190000D01*
G01*
D11*
%TO.C,D58*%
X164273500Y-143967000D02*
X164273500Y-142517000D01*
X164273500Y-142517000D02*
X166323500Y-142517000D01*
X166323500Y-142517000D02*
X166323500Y-143967000D01*
X166323500Y-143967000D02*
X164273500Y-143967000D01*
%TO.C,D57*%
X143826500Y-143967000D02*
X143826500Y-142517000D01*
X143826500Y-142517000D02*
X145876500Y-142517000D01*
X145876500Y-142517000D02*
X145876500Y-143967000D01*
X145876500Y-143967000D02*
X143826500Y-143967000D01*
D12*
%TO.C,U1*%
X82867500Y-77660500D02*
X82867500Y-47180500D01*
D14*
X85407500Y-77660500D02*
X82867500Y-77660500D01*
X85407500Y-47180500D02*
X85407500Y-77660500D01*
X82867500Y-47180500D02*
X85407500Y-47180500D01*
X98107500Y-77660500D02*
X98107500Y-47180500D01*
X100647500Y-77660500D02*
X98107500Y-77660500D01*
D12*
X100647500Y-47180500D02*
X100647500Y-77660500D01*
D14*
X98107500Y-47180500D02*
X100647500Y-47180500D01*
X82867500Y-77660500D02*
X82867500Y-44640500D01*
X100647500Y-44640500D02*
X100647500Y-77660500D01*
X82867500Y-44640500D02*
X100647500Y-44640500D01*
D12*
%TO.C,D29*%
X159002500Y-141963500D02*
X160402500Y-141963500D01*
X160402500Y-141063500D02*
X159702500Y-141963500D01*
X159002500Y-141063500D02*
X160402500Y-141063500D01*
X159702500Y-141963500D02*
X159002500Y-141063500D01*
%TO.C,D28*%
X138555500Y-141914500D02*
X139955500Y-141914500D01*
X139955500Y-141014500D02*
X139255500Y-141914500D01*
X138555500Y-141014500D02*
X139955500Y-141014500D01*
X139255500Y-141914500D02*
X138555500Y-141014500D01*
%TO.C,D27*%
X118362500Y-144264000D02*
X119762500Y-144264000D01*
X119762500Y-143364000D02*
X119062500Y-144264000D01*
X118362500Y-143364000D02*
X119762500Y-143364000D01*
X119062500Y-144264000D02*
X118362500Y-143364000D01*
%TO.C,D26*%
X225804500Y-128374500D02*
X227204500Y-128374500D01*
X227204500Y-127474500D02*
X226504500Y-128374500D01*
X225804500Y-127474500D02*
X227204500Y-127474500D01*
X226504500Y-128374500D02*
X225804500Y-127474500D01*
%TO.C,D25*%
X205484500Y-126738000D02*
X206884500Y-126738000D01*
X206884500Y-125838000D02*
X206184500Y-126738000D01*
X205484500Y-125838000D02*
X206884500Y-125838000D01*
X206184500Y-126738000D02*
X205484500Y-125838000D01*
%TO.C,D24*%
X185101000Y-121643500D02*
X186501000Y-121643500D01*
X186501000Y-120743500D02*
X185801000Y-121643500D01*
X185101000Y-120743500D02*
X186501000Y-120743500D01*
X185801000Y-121643500D02*
X185101000Y-120743500D01*
%TO.C,D23*%
X164844500Y-120261000D02*
X166244500Y-120261000D01*
X166244500Y-119361000D02*
X165544500Y-120261000D01*
X164844500Y-119361000D02*
X166244500Y-119361000D01*
X165544500Y-120261000D02*
X164844500Y-119361000D01*
%TO.C,D22*%
X144461000Y-121785000D02*
X145861000Y-121785000D01*
X145861000Y-120885000D02*
X145161000Y-121785000D01*
X144461000Y-120885000D02*
X145861000Y-120885000D01*
X145161000Y-121785000D02*
X144461000Y-120885000D01*
%TO.C,D21*%
X124204500Y-124198000D02*
X125604500Y-124198000D01*
X125604500Y-123298000D02*
X124904500Y-124198000D01*
X124204500Y-123298000D02*
X125604500Y-123298000D01*
X124904500Y-124198000D02*
X124204500Y-123298000D01*
%TO.C,D20*%
X95250282Y-149043770D02*
X96462718Y-148343770D01*
X96012718Y-147564347D02*
X95856500Y-148693770D01*
X94800282Y-148264347D02*
X96012718Y-147564347D01*
X95856500Y-148693770D02*
X94800282Y-148264347D01*
%TO.C,D19*%
X225741000Y-108132500D02*
X227141000Y-108132500D01*
X227141000Y-107232500D02*
X226441000Y-108132500D01*
X225741000Y-107232500D02*
X227141000Y-107232500D01*
X226441000Y-108132500D02*
X225741000Y-107232500D01*
%TO.C,D17*%
X185101000Y-101338000D02*
X186501000Y-101338000D01*
X186501000Y-100438000D02*
X185801000Y-101338000D01*
X185101000Y-100438000D02*
X186501000Y-100438000D01*
X185801000Y-101338000D02*
X185101000Y-100438000D01*
%TO.C,D16*%
X164844500Y-99941000D02*
X166244500Y-99941000D01*
X166244500Y-99041000D02*
X165544500Y-99941000D01*
X164844500Y-99041000D02*
X166244500Y-99041000D01*
X165544500Y-99941000D02*
X164844500Y-99041000D01*
%TO.C,D15*%
X144461000Y-101416000D02*
X145861000Y-101416000D01*
X145861000Y-100516000D02*
X145161000Y-101416000D01*
X144461000Y-100516000D02*
X145861000Y-100516000D01*
X145161000Y-101416000D02*
X144461000Y-100516000D01*
%TO.C,D14*%
X124204500Y-103878000D02*
X125604500Y-103878000D01*
X125604500Y-102978000D02*
X124904500Y-103878000D01*
X124204500Y-102978000D02*
X125604500Y-102978000D01*
X124904500Y-103878000D02*
X124204500Y-102978000D01*
%TO.C,D13*%
X87819000Y-113925500D02*
X89219000Y-113925500D01*
X89219000Y-113025500D02*
X88519000Y-113925500D01*
X87819000Y-113025500D02*
X89219000Y-113025500D01*
X88519000Y-113925500D02*
X87819000Y-113025500D01*
%TO.C,D12*%
X225741000Y-87495000D02*
X227141000Y-87495000D01*
X227141000Y-86595000D02*
X226441000Y-87495000D01*
X225741000Y-86595000D02*
X227141000Y-86595000D01*
X226441000Y-87495000D02*
X225741000Y-86595000D01*
%TO.C,D11*%
X205484500Y-85971000D02*
X206884500Y-85971000D01*
X206884500Y-85071000D02*
X206184500Y-85971000D01*
X205484500Y-85071000D02*
X206884500Y-85071000D01*
X206184500Y-85971000D02*
X205484500Y-85071000D01*
%TO.C,D10*%
X185101000Y-81018000D02*
X186501000Y-81018000D01*
X186501000Y-80118000D02*
X185801000Y-81018000D01*
X185101000Y-80118000D02*
X186501000Y-80118000D01*
X185801000Y-81018000D02*
X185101000Y-80118000D01*
%TO.C,D9*%
X164908000Y-79606500D02*
X166308000Y-79606500D01*
X166308000Y-78706500D02*
X165608000Y-79606500D01*
X164908000Y-78706500D02*
X166308000Y-78706500D01*
X165608000Y-79606500D02*
X164908000Y-78706500D01*
%TO.C,D8*%
X144461000Y-79875000D02*
X145861000Y-79875000D01*
X145861000Y-78975000D02*
X145161000Y-79875000D01*
X144461000Y-78975000D02*
X145861000Y-78975000D01*
X145161000Y-79875000D02*
X144461000Y-78975000D01*
%TO.C,D7*%
X124141000Y-82337000D02*
X125541000Y-82337000D01*
X125541000Y-81437000D02*
X124841000Y-82337000D01*
X124141000Y-81437000D02*
X125541000Y-81437000D01*
X124841000Y-82337000D02*
X124141000Y-81437000D01*
%TO.C,D6*%
X225741000Y-67380000D02*
X227141000Y-67380000D01*
X227141000Y-66480000D02*
X226441000Y-67380000D01*
X225741000Y-66480000D02*
X227141000Y-66480000D01*
X226441000Y-67380000D02*
X225741000Y-66480000D01*
%TO.C,D5*%
X205421000Y-65729000D02*
X206821000Y-65729000D01*
X206821000Y-64829000D02*
X206121000Y-65729000D01*
X205421000Y-64829000D02*
X206821000Y-64829000D01*
X206121000Y-65729000D02*
X205421000Y-64829000D01*
%TO.C,D4*%
X185101000Y-60649000D02*
X186501000Y-60649000D01*
X186501000Y-59749000D02*
X185801000Y-60649000D01*
X185101000Y-59749000D02*
X186501000Y-59749000D01*
X185801000Y-60649000D02*
X185101000Y-59749000D01*
%TO.C,D3*%
X164908000Y-59252000D02*
X166308000Y-59252000D01*
X166308000Y-58352000D02*
X165608000Y-59252000D01*
X164908000Y-58352000D02*
X166308000Y-58352000D01*
X165608000Y-59252000D02*
X164908000Y-58352000D01*
%TO.C,D2*%
X144461000Y-60776000D02*
X145861000Y-60776000D01*
X145861000Y-59876000D02*
X145161000Y-60776000D01*
X144461000Y-59876000D02*
X145861000Y-59876000D01*
X145161000Y-60776000D02*
X144461000Y-59876000D01*
%TO.C,D1*%
X124141000Y-63316000D02*
X125541000Y-63316000D01*
X125541000Y-62416000D02*
X124841000Y-63316000D01*
X124141000Y-62416000D02*
X125541000Y-62416000D01*
X124841000Y-63316000D02*
X124141000Y-62416000D01*
D11*
%TO.C,D56*%
X125683500Y-146316500D02*
X123633500Y-146316500D01*
X125683500Y-144866500D02*
X125683500Y-146316500D01*
X123633500Y-144866500D02*
X125683500Y-144866500D01*
X123633500Y-146316500D02*
X123633500Y-144866500D01*
%TO.C,D55*%
X102601885Y-147173141D02*
X100826533Y-148198141D01*
X101876885Y-145917404D02*
X102601885Y-147173141D01*
X100101533Y-146942404D02*
X101876885Y-145917404D01*
X100826533Y-148198141D02*
X100101533Y-146942404D01*
%TO.C,D54*%
X118283500Y-122987000D02*
X120333500Y-122987000D01*
X118283500Y-124437000D02*
X118283500Y-122987000D01*
X120333500Y-124437000D02*
X118283500Y-124437000D01*
X120333500Y-122987000D02*
X120333500Y-124437000D01*
%TO.C,D53*%
X138540000Y-120574000D02*
X140590000Y-120574000D01*
X138540000Y-122024000D02*
X138540000Y-120574000D01*
X140590000Y-122024000D02*
X138540000Y-122024000D01*
X140590000Y-120574000D02*
X140590000Y-122024000D01*
%TO.C,D52*%
X158923500Y-119050000D02*
X160973500Y-119050000D01*
X158923500Y-120500000D02*
X158923500Y-119050000D01*
X160973500Y-120500000D02*
X158923500Y-120500000D01*
X160973500Y-119050000D02*
X160973500Y-120500000D01*
%TO.C,D51*%
X179180000Y-120510500D02*
X181230000Y-120510500D01*
X179180000Y-121960500D02*
X179180000Y-120510500D01*
X181230000Y-121960500D02*
X179180000Y-121960500D01*
X181230000Y-120510500D02*
X181230000Y-121960500D01*
%TO.C,D50*%
X199563500Y-125527000D02*
X201613500Y-125527000D01*
X199563500Y-126977000D02*
X199563500Y-125527000D01*
X201613500Y-126977000D02*
X199563500Y-126977000D01*
X201613500Y-125527000D02*
X201613500Y-126977000D01*
%TO.C,D49*%
X219883500Y-127178000D02*
X221933500Y-127178000D01*
X219883500Y-128628000D02*
X219883500Y-127178000D01*
X221933500Y-128628000D02*
X219883500Y-128628000D01*
X221933500Y-127178000D02*
X221933500Y-128628000D01*
%TO.C,D48*%
X217060000Y-110121500D02*
X215010000Y-110121500D01*
X217060000Y-108671500D02*
X217060000Y-110121500D01*
X215010000Y-108671500D02*
X217060000Y-108671500D01*
X215010000Y-110121500D02*
X215010000Y-108671500D01*
%TO.C,D47*%
X196803500Y-108470500D02*
X194753500Y-108470500D01*
X196803500Y-107020500D02*
X196803500Y-108470500D01*
X194753500Y-107020500D02*
X196803500Y-107020500D01*
X194753500Y-108470500D02*
X194753500Y-107020500D01*
%TO.C,D46*%
X176420000Y-103327000D02*
X174370000Y-103327000D01*
X176420000Y-101877000D02*
X176420000Y-103327000D01*
X174370000Y-101877000D02*
X176420000Y-101877000D01*
X174370000Y-103327000D02*
X174370000Y-101877000D01*
%TO.C,D45*%
X156163500Y-101930000D02*
X154113500Y-101930000D01*
X156163500Y-100480000D02*
X156163500Y-101930000D01*
X154113500Y-100480000D02*
X156163500Y-100480000D01*
X154113500Y-101930000D02*
X154113500Y-100480000D01*
%TO.C,D44*%
X135780000Y-103390500D02*
X133730000Y-103390500D01*
X135780000Y-101940500D02*
X135780000Y-103390500D01*
X133730000Y-101940500D02*
X135780000Y-101940500D01*
X133730000Y-103390500D02*
X133730000Y-101940500D01*
%TO.C,D43*%
X115523500Y-105930500D02*
X113473500Y-105930500D01*
X115523500Y-104480500D02*
X115523500Y-105930500D01*
X113473500Y-104480500D02*
X115523500Y-104480500D01*
X113473500Y-105930500D02*
X113473500Y-104480500D01*
%TO.C,D42*%
X97900000Y-112763500D02*
X99950000Y-112763500D01*
X97900000Y-114213500D02*
X97900000Y-112763500D01*
X99950000Y-114213500D02*
X97900000Y-114213500D01*
X99950000Y-112763500D02*
X99950000Y-114213500D01*
%TO.C,D41*%
X118220000Y-82474000D02*
X120270000Y-82474000D01*
X118220000Y-83924000D02*
X118220000Y-82474000D01*
X120270000Y-83924000D02*
X118220000Y-83924000D01*
X120270000Y-82474000D02*
X120270000Y-83924000D01*
%TO.C,D40*%
X138540000Y-79934000D02*
X140590000Y-79934000D01*
X138540000Y-81384000D02*
X138540000Y-79934000D01*
X140590000Y-81384000D02*
X138540000Y-81384000D01*
X140590000Y-79934000D02*
X140590000Y-81384000D01*
%TO.C,D39*%
X159000000Y-78424000D02*
X161050000Y-78424000D01*
X159000000Y-79874000D02*
X159000000Y-78424000D01*
X161050000Y-79874000D02*
X159000000Y-79874000D01*
X161050000Y-78424000D02*
X161050000Y-79874000D01*
%TO.C,D38*%
X179180000Y-79807000D02*
X181230000Y-79807000D01*
X179180000Y-81257000D02*
X179180000Y-79807000D01*
X181230000Y-81257000D02*
X179180000Y-81257000D01*
X181230000Y-79807000D02*
X181230000Y-81257000D01*
%TO.C,D37*%
X199563500Y-84760000D02*
X201613500Y-84760000D01*
X199563500Y-86210000D02*
X199563500Y-84760000D01*
X201613500Y-86210000D02*
X199563500Y-86210000D01*
X201613500Y-84760000D02*
X201613500Y-86210000D01*
%TO.C,D36*%
X219820000Y-86347500D02*
X221870000Y-86347500D01*
X219820000Y-87797500D02*
X219820000Y-86347500D01*
X221870000Y-87797500D02*
X219820000Y-87797500D01*
X221870000Y-86347500D02*
X221870000Y-87797500D01*
%TO.C,D35*%
X217060000Y-69418000D02*
X215010000Y-69418000D01*
X217060000Y-67968000D02*
X217060000Y-69418000D01*
X215010000Y-67968000D02*
X217060000Y-67968000D01*
X215010000Y-69418000D02*
X215010000Y-67968000D01*
%TO.C,D34*%
X196740000Y-67767000D02*
X194690000Y-67767000D01*
X196740000Y-66317000D02*
X196740000Y-67767000D01*
X194690000Y-66317000D02*
X196740000Y-66317000D01*
X194690000Y-67767000D02*
X194690000Y-66317000D01*
%TO.C,D33*%
X176420000Y-62687000D02*
X174370000Y-62687000D01*
X176420000Y-61237000D02*
X176420000Y-62687000D01*
X174370000Y-61237000D02*
X176420000Y-61237000D01*
X174370000Y-62687000D02*
X174370000Y-61237000D01*
%TO.C,D32*%
X156227000Y-61290000D02*
X154177000Y-61290000D01*
X156227000Y-59840000D02*
X156227000Y-61290000D01*
X154177000Y-59840000D02*
X156227000Y-59840000D01*
X154177000Y-61290000D02*
X154177000Y-59840000D01*
%TO.C,D31*%
X135780000Y-62814000D02*
X133730000Y-62814000D01*
X135780000Y-61364000D02*
X135780000Y-62814000D01*
X133730000Y-61364000D02*
X135780000Y-61364000D01*
X133730000Y-62814000D02*
X133730000Y-61364000D01*
%TO.C,D30*%
X115460000Y-65354000D02*
X113410000Y-65354000D01*
X115460000Y-63904000D02*
X115460000Y-65354000D01*
X113410000Y-63904000D02*
X115460000Y-63904000D01*
X113410000Y-65354000D02*
X113410000Y-63904000D01*
%TO.C,SW29*%
X169083500Y-140767000D02*
X171133500Y-140767000D01*
X169083500Y-142217000D02*
X169083500Y-140767000D01*
X171133500Y-142217000D02*
X169083500Y-142217000D01*
X171133500Y-140767000D02*
X171133500Y-142217000D01*
D12*
X172503500Y-134310000D02*
X167453500Y-134356000D01*
X172503500Y-134264000D02*
X172503500Y-130356000D01*
X172503500Y-130356000D02*
X163878500Y-130356000D01*
X161603500Y-132310000D02*
X161603500Y-136255000D01*
X161603500Y-136264000D02*
X165213500Y-136264000D01*
X165218501Y-136239999D02*
G75*
G02*
X167478500Y-134360000I2069999J-190000D01*
G01*
X161614500Y-132240000D02*
G75*
G02*
X163878500Y-130356000I2074000J-190000D01*
G01*
D11*
%TO.C,SW28*%
X148636500Y-140767000D02*
X150686500Y-140767000D01*
X148636500Y-142217000D02*
X148636500Y-140767000D01*
X150686500Y-142217000D02*
X148636500Y-142217000D01*
X150686500Y-140767000D02*
X150686500Y-142217000D01*
D12*
X152056500Y-134310000D02*
X147006500Y-134356000D01*
X152056500Y-134264000D02*
X152056500Y-130356000D01*
X152056500Y-130356000D02*
X143431500Y-130356000D01*
X141156500Y-132310000D02*
X141156500Y-136255000D01*
X141156500Y-136264000D02*
X144766500Y-136264000D01*
X144771501Y-136239999D02*
G75*
G02*
X147031500Y-134360000I2069999J-190000D01*
G01*
X141167500Y-132240000D02*
G75*
G02*
X143431500Y-130356000I2074000J-190000D01*
G01*
D11*
%TO.C,SW27*%
X128443500Y-143116500D02*
X130493500Y-143116500D01*
X128443500Y-144566500D02*
X128443500Y-143116500D01*
X130493500Y-144566500D02*
X128443500Y-144566500D01*
X130493500Y-143116500D02*
X130493500Y-144566500D01*
D12*
X131863500Y-136659500D02*
X126813500Y-136705500D01*
X131863500Y-136613500D02*
X131863500Y-132705500D01*
X131863500Y-132705500D02*
X123238500Y-132705500D01*
X120963500Y-134659500D02*
X120963500Y-138604500D01*
X120963500Y-138613500D02*
X124573500Y-138613500D01*
X124578501Y-138589499D02*
G75*
G02*
X126838500Y-136709500I2069999J-190000D01*
G01*
X120974500Y-134589500D02*
G75*
G02*
X123238500Y-132705500I2074000J-190000D01*
G01*
D11*
%TO.C,SW26*%
X219883500Y-127178000D02*
X221933500Y-127178000D01*
X219883500Y-128628000D02*
X219883500Y-127178000D01*
X221933500Y-128628000D02*
X219883500Y-128628000D01*
X221933500Y-127178000D02*
X221933500Y-128628000D01*
D12*
X223303500Y-120721000D02*
X218253500Y-120767000D01*
X223303500Y-120675000D02*
X223303500Y-116767000D01*
X223303500Y-116767000D02*
X214678500Y-116767000D01*
X212403500Y-118721000D02*
X212403500Y-122666000D01*
X212403500Y-122675000D02*
X216013500Y-122675000D01*
X216018501Y-122650999D02*
G75*
G02*
X218278500Y-120771000I2069999J-190000D01*
G01*
X212414500Y-118651000D02*
G75*
G02*
X214678500Y-116767000I2074000J-190000D01*
G01*
D11*
%TO.C,SW25*%
X199563500Y-125527000D02*
X201613500Y-125527000D01*
X199563500Y-126977000D02*
X199563500Y-125527000D01*
X201613500Y-126977000D02*
X199563500Y-126977000D01*
X201613500Y-125527000D02*
X201613500Y-126977000D01*
D12*
X202983500Y-119070000D02*
X197933500Y-119116000D01*
X202983500Y-119024000D02*
X202983500Y-115116000D01*
X202983500Y-115116000D02*
X194358500Y-115116000D01*
X192083500Y-117070000D02*
X192083500Y-121015000D01*
X192083500Y-121024000D02*
X195693500Y-121024000D01*
X195698501Y-120999999D02*
G75*
G02*
X197958500Y-119120000I2069999J-190000D01*
G01*
X192094500Y-117000000D02*
G75*
G02*
X194358500Y-115116000I2074000J-190000D01*
G01*
D11*
%TO.C,SW24*%
X179180000Y-120510500D02*
X181230000Y-120510500D01*
X179180000Y-121960500D02*
X179180000Y-120510500D01*
X181230000Y-121960500D02*
X179180000Y-121960500D01*
X181230000Y-120510500D02*
X181230000Y-121960500D01*
D12*
X182600000Y-114053500D02*
X177550000Y-114099500D01*
X182600000Y-114007500D02*
X182600000Y-110099500D01*
X182600000Y-110099500D02*
X173975000Y-110099500D01*
X171700000Y-112053500D02*
X171700000Y-115998500D01*
X171700000Y-116007500D02*
X175310000Y-116007500D01*
X175315001Y-115983499D02*
G75*
G02*
X177575000Y-114103500I2069999J-190000D01*
G01*
X171711000Y-111983500D02*
G75*
G02*
X173975000Y-110099500I2074000J-190000D01*
G01*
D11*
%TO.C,SW23*%
X158923500Y-119050000D02*
X160973500Y-119050000D01*
X158923500Y-120500000D02*
X158923500Y-119050000D01*
X160973500Y-120500000D02*
X158923500Y-120500000D01*
X160973500Y-119050000D02*
X160973500Y-120500000D01*
D12*
X162343500Y-112593000D02*
X157293500Y-112639000D01*
X162343500Y-112547000D02*
X162343500Y-108639000D01*
X162343500Y-108639000D02*
X153718500Y-108639000D01*
X151443500Y-110593000D02*
X151443500Y-114538000D01*
X151443500Y-114547000D02*
X155053500Y-114547000D01*
X155058501Y-114522999D02*
G75*
G02*
X157318500Y-112643000I2069999J-190000D01*
G01*
X151454500Y-110523000D02*
G75*
G02*
X153718500Y-108639000I2074000J-190000D01*
G01*
D11*
%TO.C,SW22*%
X138540000Y-120574000D02*
X140590000Y-120574000D01*
X138540000Y-122024000D02*
X138540000Y-120574000D01*
X140590000Y-122024000D02*
X138540000Y-122024000D01*
X140590000Y-120574000D02*
X140590000Y-122024000D01*
D12*
X141960000Y-114117000D02*
X136910000Y-114163000D01*
X141960000Y-114071000D02*
X141960000Y-110163000D01*
X141960000Y-110163000D02*
X133335000Y-110163000D01*
X131060000Y-112117000D02*
X131060000Y-116062000D01*
X131060000Y-116071000D02*
X134670000Y-116071000D01*
X134675001Y-116046999D02*
G75*
G02*
X136935000Y-114167000I2069999J-190000D01*
G01*
X131071000Y-112047000D02*
G75*
G02*
X133335000Y-110163000I2074000J-190000D01*
G01*
D11*
%TO.C,SW21*%
X118283500Y-122987000D02*
X120333500Y-122987000D01*
X118283500Y-124437000D02*
X118283500Y-122987000D01*
X120333500Y-124437000D02*
X118283500Y-124437000D01*
X120333500Y-122987000D02*
X120333500Y-124437000D01*
D12*
X121703500Y-116530000D02*
X116653500Y-116576000D01*
X121703500Y-116484000D02*
X121703500Y-112576000D01*
X121703500Y-112576000D02*
X113078500Y-112576000D01*
X110803500Y-114530000D02*
X110803500Y-118475000D01*
X110803500Y-118484000D02*
X114413500Y-118484000D01*
X114418501Y-118459999D02*
G75*
G02*
X116678500Y-116580000I2069999J-190000D01*
G01*
X110814500Y-114460000D02*
G75*
G02*
X113078500Y-112576000I2074000J-190000D01*
G01*
D11*
%TO.C,SW19*%
X219820000Y-106921500D02*
X221870000Y-106921500D01*
X219820000Y-108371500D02*
X219820000Y-106921500D01*
X221870000Y-108371500D02*
X219820000Y-108371500D01*
X221870000Y-106921500D02*
X221870000Y-108371500D01*
D12*
X223240000Y-100464500D02*
X218190000Y-100510500D01*
X223240000Y-100418500D02*
X223240000Y-96510500D01*
X223240000Y-96510500D02*
X214615000Y-96510500D01*
X212340000Y-98464500D02*
X212340000Y-102409500D01*
X212340000Y-102418500D02*
X215950000Y-102418500D01*
X215955001Y-102394499D02*
G75*
G02*
X218215000Y-100514500I2069999J-190000D01*
G01*
X212351000Y-98394500D02*
G75*
G02*
X214615000Y-96510500I2074000J-190000D01*
G01*
D11*
%TO.C,SW18*%
X199563500Y-105270500D02*
X201613500Y-105270500D01*
X199563500Y-106720500D02*
X199563500Y-105270500D01*
X201613500Y-106720500D02*
X199563500Y-106720500D01*
X201613500Y-105270500D02*
X201613500Y-106720500D01*
D12*
X202983500Y-98813500D02*
X197933500Y-98859500D01*
X202983500Y-98767500D02*
X202983500Y-94859500D01*
X202983500Y-94859500D02*
X194358500Y-94859500D01*
X192083500Y-96813500D02*
X192083500Y-100758500D01*
X192083500Y-100767500D02*
X195693500Y-100767500D01*
X195698501Y-100743499D02*
G75*
G02*
X197958500Y-98863500I2069999J-190000D01*
G01*
X192094500Y-96743500D02*
G75*
G02*
X194358500Y-94859500I2074000J-190000D01*
G01*
D11*
%TO.C,SW17*%
X179180000Y-100127000D02*
X181230000Y-100127000D01*
X179180000Y-101577000D02*
X179180000Y-100127000D01*
X181230000Y-101577000D02*
X179180000Y-101577000D01*
X181230000Y-100127000D02*
X181230000Y-101577000D01*
D12*
X182600000Y-93670000D02*
X177550000Y-93716000D01*
X182600000Y-93624000D02*
X182600000Y-89716000D01*
X182600000Y-89716000D02*
X173975000Y-89716000D01*
X171700000Y-91670000D02*
X171700000Y-95615000D01*
X171700000Y-95624000D02*
X175310000Y-95624000D01*
X175315001Y-95599999D02*
G75*
G02*
X177575000Y-93720000I2069999J-190000D01*
G01*
X171711000Y-91600000D02*
G75*
G02*
X173975000Y-89716000I2074000J-190000D01*
G01*
D11*
%TO.C,SW15*%
X138540000Y-100190500D02*
X140590000Y-100190500D01*
X138540000Y-101640500D02*
X138540000Y-100190500D01*
X140590000Y-101640500D02*
X138540000Y-101640500D01*
X140590000Y-100190500D02*
X140590000Y-101640500D01*
D12*
X141960000Y-93733500D02*
X136910000Y-93779500D01*
X141960000Y-93687500D02*
X141960000Y-89779500D01*
X141960000Y-89779500D02*
X133335000Y-89779500D01*
X131060000Y-91733500D02*
X131060000Y-95678500D01*
X131060000Y-95687500D02*
X134670000Y-95687500D01*
X134675001Y-95663499D02*
G75*
G02*
X136935000Y-93783500I2069999J-190000D01*
G01*
X131071000Y-91663500D02*
G75*
G02*
X133335000Y-89779500I2074000J-190000D01*
G01*
D11*
%TO.C,SW14*%
X118283500Y-102730500D02*
X120333500Y-102730500D01*
X118283500Y-104180500D02*
X118283500Y-102730500D01*
X120333500Y-104180500D02*
X118283500Y-104180500D01*
X120333500Y-102730500D02*
X120333500Y-104180500D01*
D12*
X121703500Y-96273500D02*
X116653500Y-96319500D01*
X121703500Y-96227500D02*
X121703500Y-92319500D01*
X121703500Y-92319500D02*
X113078500Y-92319500D01*
X110803500Y-94273500D02*
X110803500Y-98218500D01*
X110803500Y-98227500D02*
X114413500Y-98227500D01*
X114418501Y-98203499D02*
G75*
G02*
X116678500Y-96323500I2069999J-190000D01*
G01*
X110814500Y-94203500D02*
G75*
G02*
X113078500Y-92319500I2074000J-190000D01*
G01*
D11*
%TO.C,SW12*%
X219820000Y-86347500D02*
X221870000Y-86347500D01*
X219820000Y-87797500D02*
X219820000Y-86347500D01*
X221870000Y-87797500D02*
X219820000Y-87797500D01*
X221870000Y-86347500D02*
X221870000Y-87797500D01*
D12*
X223240000Y-79890500D02*
X218190000Y-79936500D01*
X223240000Y-79844500D02*
X223240000Y-75936500D01*
X223240000Y-75936500D02*
X214615000Y-75936500D01*
X212340000Y-77890500D02*
X212340000Y-81835500D01*
X212340000Y-81844500D02*
X215950000Y-81844500D01*
X215955001Y-81820499D02*
G75*
G02*
X218215000Y-79940500I2069999J-190000D01*
G01*
X212351000Y-77820500D02*
G75*
G02*
X214615000Y-75936500I2074000J-190000D01*
G01*
D11*
%TO.C,SW11*%
X199563500Y-84760000D02*
X201613500Y-84760000D01*
X199563500Y-86210000D02*
X199563500Y-84760000D01*
X201613500Y-86210000D02*
X199563500Y-86210000D01*
X201613500Y-84760000D02*
X201613500Y-86210000D01*
D12*
X202983500Y-78303000D02*
X197933500Y-78349000D01*
X202983500Y-78257000D02*
X202983500Y-74349000D01*
X202983500Y-74349000D02*
X194358500Y-74349000D01*
X192083500Y-76303000D02*
X192083500Y-80248000D01*
X192083500Y-80257000D02*
X195693500Y-80257000D01*
X195698501Y-80232999D02*
G75*
G02*
X197958500Y-78353000I2069999J-190000D01*
G01*
X192094500Y-76233000D02*
G75*
G02*
X194358500Y-74349000I2074000J-190000D01*
G01*
D11*
%TO.C,SW10*%
X179180000Y-79807000D02*
X181230000Y-79807000D01*
X179180000Y-81257000D02*
X179180000Y-79807000D01*
X181230000Y-81257000D02*
X179180000Y-81257000D01*
X181230000Y-79807000D02*
X181230000Y-81257000D01*
D12*
X182600000Y-73350000D02*
X177550000Y-73396000D01*
X182600000Y-73304000D02*
X182600000Y-69396000D01*
X182600000Y-69396000D02*
X173975000Y-69396000D01*
X171700000Y-71350000D02*
X171700000Y-75295000D01*
X171700000Y-75304000D02*
X175310000Y-75304000D01*
X175315001Y-75279999D02*
G75*
G02*
X177575000Y-73400000I2069999J-190000D01*
G01*
X171711000Y-71280000D02*
G75*
G02*
X173975000Y-69396000I2074000J-190000D01*
G01*
D11*
%TO.C,SW9*%
X158987000Y-78410000D02*
X161037000Y-78410000D01*
X158987000Y-79860000D02*
X158987000Y-78410000D01*
X161037000Y-79860000D02*
X158987000Y-79860000D01*
X161037000Y-78410000D02*
X161037000Y-79860000D01*
D12*
X162407000Y-71953000D02*
X157357000Y-71999000D01*
X162407000Y-71907000D02*
X162407000Y-67999000D01*
X162407000Y-67999000D02*
X153782000Y-67999000D01*
X151507000Y-69953000D02*
X151507000Y-73898000D01*
X151507000Y-73907000D02*
X155117000Y-73907000D01*
X155122001Y-73882999D02*
G75*
G02*
X157382000Y-72003000I2069999J-190000D01*
G01*
X151518000Y-69883000D02*
G75*
G02*
X153782000Y-67999000I2074000J-190000D01*
G01*
D11*
%TO.C,SW8*%
X138540000Y-79934000D02*
X140590000Y-79934000D01*
X138540000Y-81384000D02*
X138540000Y-79934000D01*
X140590000Y-81384000D02*
X138540000Y-81384000D01*
X140590000Y-79934000D02*
X140590000Y-81384000D01*
D12*
X141960000Y-73477000D02*
X136910000Y-73523000D01*
X141960000Y-73431000D02*
X141960000Y-69523000D01*
X141960000Y-69523000D02*
X133335000Y-69523000D01*
X131060000Y-71477000D02*
X131060000Y-75422000D01*
X131060000Y-75431000D02*
X134670000Y-75431000D01*
X134675001Y-75406999D02*
G75*
G02*
X136935000Y-73527000I2069999J-190000D01*
G01*
X131071000Y-71407000D02*
G75*
G02*
X133335000Y-69523000I2074000J-190000D01*
G01*
D11*
%TO.C,SW7*%
X118220000Y-82474000D02*
X120270000Y-82474000D01*
X118220000Y-83924000D02*
X118220000Y-82474000D01*
X120270000Y-83924000D02*
X118220000Y-83924000D01*
X120270000Y-82474000D02*
X120270000Y-83924000D01*
D12*
X121640000Y-76017000D02*
X116590000Y-76063000D01*
X121640000Y-75971000D02*
X121640000Y-72063000D01*
X121640000Y-72063000D02*
X113015000Y-72063000D01*
X110740000Y-74017000D02*
X110740000Y-77962000D01*
X110740000Y-77971000D02*
X114350000Y-77971000D01*
X114355001Y-77946999D02*
G75*
G02*
X116615000Y-76067000I2069999J-190000D01*
G01*
X110751000Y-73947000D02*
G75*
G02*
X113015000Y-72063000I2074000J-190000D01*
G01*
D11*
%TO.C,SW6*%
X219820000Y-66218000D02*
X221870000Y-66218000D01*
X219820000Y-67668000D02*
X219820000Y-66218000D01*
X221870000Y-67668000D02*
X219820000Y-67668000D01*
X221870000Y-66218000D02*
X221870000Y-67668000D01*
D12*
X223240000Y-59761000D02*
X218190000Y-59807000D01*
X223240000Y-59715000D02*
X223240000Y-55807000D01*
X223240000Y-55807000D02*
X214615000Y-55807000D01*
X212340000Y-57761000D02*
X212340000Y-61706000D01*
X212340000Y-61715000D02*
X215950000Y-61715000D01*
X215955001Y-61690999D02*
G75*
G02*
X218215000Y-59811000I2069999J-190000D01*
G01*
X212351000Y-57691000D02*
G75*
G02*
X214615000Y-55807000I2074000J-190000D01*
G01*
D11*
%TO.C,SW5*%
X199500000Y-64567000D02*
X201550000Y-64567000D01*
X199500000Y-66017000D02*
X199500000Y-64567000D01*
X201550000Y-66017000D02*
X199500000Y-66017000D01*
X201550000Y-64567000D02*
X201550000Y-66017000D01*
D12*
X202920000Y-58110000D02*
X197870000Y-58156000D01*
X202920000Y-58064000D02*
X202920000Y-54156000D01*
X202920000Y-54156000D02*
X194295000Y-54156000D01*
X192020000Y-56110000D02*
X192020000Y-60055000D01*
X192020000Y-60064000D02*
X195630000Y-60064000D01*
X195635001Y-60039999D02*
G75*
G02*
X197895000Y-58160000I2069999J-190000D01*
G01*
X192031000Y-56040000D02*
G75*
G02*
X194295000Y-54156000I2074000J-190000D01*
G01*
D11*
%TO.C,SW4*%
X179180000Y-59487000D02*
X181230000Y-59487000D01*
X179180000Y-60937000D02*
X179180000Y-59487000D01*
X181230000Y-60937000D02*
X179180000Y-60937000D01*
X181230000Y-59487000D02*
X181230000Y-60937000D01*
D12*
X182600000Y-53030000D02*
X177550000Y-53076000D01*
X182600000Y-52984000D02*
X182600000Y-49076000D01*
X182600000Y-49076000D02*
X173975000Y-49076000D01*
X171700000Y-51030000D02*
X171700000Y-54975000D01*
X171700000Y-54984000D02*
X175310000Y-54984000D01*
X175315001Y-54959999D02*
G75*
G02*
X177575000Y-53080000I2069999J-190000D01*
G01*
X171711000Y-50960000D02*
G75*
G02*
X173975000Y-49076000I2074000J-190000D01*
G01*
D11*
%TO.C,SW3*%
X158987000Y-58090001D02*
X161037000Y-58090001D01*
X158987000Y-59540001D02*
X158987000Y-58090001D01*
X161037000Y-59540001D02*
X158987000Y-59540001D01*
X161037000Y-58090001D02*
X161037000Y-59540001D01*
D12*
X162407000Y-51633001D02*
X157357000Y-51679001D01*
X162407000Y-51587001D02*
X162407000Y-47679001D01*
X162407000Y-47679001D02*
X153782000Y-47679001D01*
X151507000Y-49633001D02*
X151507000Y-53578001D01*
X151507000Y-53587001D02*
X155117000Y-53587001D01*
X155122001Y-53563000D02*
G75*
G02*
X157382000Y-51683001I2069999J-190000D01*
G01*
X151518000Y-49563001D02*
G75*
G02*
X153782000Y-47679001I2074000J-190000D01*
G01*
D11*
%TO.C,SW2*%
X138540000Y-59614000D02*
X140590000Y-59614000D01*
X138540000Y-61064000D02*
X138540000Y-59614000D01*
X140590000Y-61064000D02*
X138540000Y-61064000D01*
X140590000Y-59614000D02*
X140590000Y-61064000D01*
D12*
X141960000Y-53157000D02*
X136910000Y-53203000D01*
X141960000Y-53111000D02*
X141960000Y-49203000D01*
X141960000Y-49203000D02*
X133335000Y-49203000D01*
X131060000Y-51157000D02*
X131060000Y-55102000D01*
X131060000Y-55111000D02*
X134670000Y-55111000D01*
X134675001Y-55086999D02*
G75*
G02*
X136935000Y-53207000I2069999J-190000D01*
G01*
X131071000Y-51087000D02*
G75*
G02*
X133335000Y-49203000I2074000J-190000D01*
G01*
D11*
%TO.C,SW1*%
X118220000Y-62154000D02*
X120270000Y-62154000D01*
X118220000Y-63604000D02*
X118220000Y-62154000D01*
X120270000Y-63604000D02*
X118220000Y-63604000D01*
X120270000Y-62154000D02*
X120270000Y-63604000D01*
D12*
X121640000Y-55697000D02*
X116590000Y-55743000D01*
X121640000Y-55651000D02*
X121640000Y-51743000D01*
X121640000Y-51743000D02*
X113015000Y-51743000D01*
X110740000Y-53697000D02*
X110740000Y-57642000D01*
X110740000Y-57651000D02*
X114350000Y-57651000D01*
X114355001Y-57626999D02*
G75*
G02*
X116615000Y-55747000I2069999J-190000D01*
G01*
X110751000Y-53627000D02*
G75*
G02*
X113015000Y-51743000I2074000J-190000D01*
G01*
%TO.C,JP3*%
X90892380Y-71874166D02*
X91606666Y-71874166D01*
X91749523Y-71826547D01*
X91844761Y-71731309D01*
X91892380Y-71588452D01*
X91892380Y-71493214D01*
X91892380Y-72350357D02*
X90892380Y-72350357D01*
X90892380Y-72731309D01*
X90940000Y-72826547D01*
X90987619Y-72874166D01*
X91082857Y-72921785D01*
X91225714Y-72921785D01*
X91320952Y-72874166D01*
X91368571Y-72826547D01*
X91416190Y-72731309D01*
X91416190Y-72350357D01*
X90892380Y-73255119D02*
X90892380Y-73874166D01*
X91273333Y-73540833D01*
X91273333Y-73683690D01*
X91320952Y-73778928D01*
X91368571Y-73826547D01*
X91463809Y-73874166D01*
X91701904Y-73874166D01*
X91797142Y-73826547D01*
X91844761Y-73778928D01*
X91892380Y-73683690D01*
X91892380Y-73397976D01*
X91844761Y-73302738D01*
X91797142Y-73255119D01*
%TO.C,JP2*%
X95972380Y-71810666D02*
X96686666Y-71810666D01*
X96829523Y-71763047D01*
X96924761Y-71667809D01*
X96972380Y-71524952D01*
X96972380Y-71429714D01*
X96972380Y-72286857D02*
X95972380Y-72286857D01*
X95972380Y-72667809D01*
X96020000Y-72763047D01*
X96067619Y-72810666D01*
X96162857Y-72858285D01*
X96305714Y-72858285D01*
X96400952Y-72810666D01*
X96448571Y-72763047D01*
X96496190Y-72667809D01*
X96496190Y-72286857D01*
X96067619Y-73239238D02*
X96020000Y-73286857D01*
X95972380Y-73382095D01*
X95972380Y-73620190D01*
X96020000Y-73715428D01*
X96067619Y-73763047D01*
X96162857Y-73810666D01*
X96258095Y-73810666D01*
X96400952Y-73763047D01*
X96972380Y-73191619D01*
X96972380Y-73810666D01*
%TD*%
M02*
