M48
; DRILL file {KiCad (5.1.8)-1} date 12/16/20 21:54:30
; FORMAT={-:-/ absolute / inch / decimal}
; #@! TF.CreationDate,2020-12-16T21:54:30-07:00
; #@! TF.GenerationSoftware,Kicad,Pcbnew,(5.1.8)-1
FMAT,2
INCH
T1C0.0118
T2C0.0157
T3C0.0315
T4C0.0320
T5C0.0394
T6C0.0394
T7C0.0433
T8C0.0787
T9C0.0039
T10C0.0472
T11C0.0669
T12C0.0748
T13C0.1181
T14C0.1575
%
G90
G05
T1
X3.5275Y-2.5175
X3.53Y-2.4175
X3.645Y-3.0475
X3.7296Y-2.2546
X3.7475Y-3.0075
X3.7775Y-2.35
X3.8217Y-2.5197
X3.8345Y-3.0031
T2
X3.221Y-2.683
X3.455Y-4.11
X3.485Y-3.349
X3.565Y-5.535
X3.6325Y-4.4975
X3.642Y-4.573
X3.82Y-2.6075
X3.835Y-2.815
X3.8375Y-2.7
X3.84Y-2.2875
X3.845Y-2.415
X3.8475Y-2.9075
X3.859Y-3.348
X3.892Y-3.294
X3.9Y-5.82
X3.91Y-5.6825
X3.982Y-4.577
X3.985Y-4.5025
X4.048Y-3.362
X4.135Y-3.361
X4.1575Y-4.105
X4.1575Y-5.2
X4.202Y-5.57
X4.226Y-3.361
X4.24Y-2.417
X4.245Y-2.549
X4.2496Y-5.6354
X4.2625Y-2.1125
X4.2625Y-2.9175
X4.265Y-4.4975
X4.2675Y-3.7
X4.338Y-4.289
X4.3924Y-2.4826
X4.4Y-3.45
X4.4224Y-4.1076
X4.4325Y-4.905
X4.439Y-4.984
X4.441Y-2.421
X4.462Y-4.019
X4.497Y-3.414
X4.591Y-4.273
X4.62Y-5.32
X4.76Y-2.42
X4.779Y-4.97
X4.78Y-4.017
X4.7825Y-3.2175
X4.784Y-3.378
X4.785Y-4.9
X4.7956Y-4.0794
X4.805Y-5.7025
X4.8106Y-2.4756
X4.817Y-5.607
X4.925Y-2.82
X5.0006Y-4.1369
X5.003Y-2.476
X5.0075Y-4.8025
X5.01Y-3.1625
X5.06Y-3.6
X5.06Y-4.4025
X5.0625Y-2.805
X5.065Y-2.01
X5.197Y-5.604
X5.198Y-5.0
X5.2006Y-2.4756
X5.205Y-5.6925
X5.208Y-3.935
X5.2094Y-4.0794
X5.2175Y-3.2175
X5.2175Y-4.8125
X5.22Y-3.286
X5.223Y-4.893
X5.243Y-2.33
X5.358Y-5.589
X5.37Y-5.3125
X5.4575Y-5.1975
X5.557Y-2.315
X5.57Y-3.13
X5.5706Y-2.3756
X5.574Y-3.275
X5.59Y-4.879
X5.5925Y-4.81
X5.593Y-3.901
X5.6019Y-3.9731
X5.6087Y-5.6037
X5.624Y-5.52
X5.834Y-2.376
X5.837Y-3.979
X5.855Y-3.184
X5.86Y-3.545
X5.8625Y-1.945
X5.8625Y-2.745
X5.8625Y-4.345
X5.913Y-4.936
X5.982Y-5.521
X5.995Y-5.6025
X6.0006Y-3.9844
X6.004Y-3.876
X6.0075Y-4.75
X6.017Y-4.827
X6.021Y-2.273
X6.0344Y-3.1844
X6.036Y-3.239
X6.0444Y-2.3756
X6.14Y-5.205
X6.26Y-5.2025
X6.364Y-3.839
X6.372Y-2.238
X6.3756Y-2.3156
X6.3756Y-3.9156
X6.4Y-4.823
X6.405Y-4.75
X6.407Y-4.923
X6.415Y-3.213
X6.4156Y-3.1156
X6.4275Y-5.6
X6.439Y-5.52
X6.6575Y-3.5975
X6.66Y-2.0
X6.6625Y-2.8
X6.6625Y-4.4
X6.667Y-3.118
X6.687Y-2.395
X6.693Y-4.965
X6.774Y-5.518
X6.8056Y-4.0394
X6.8074Y-3.1926
X6.814Y-3.893
X6.819Y-3.282
X6.83Y-4.805
X6.8306Y-2.4394
X6.831Y-4.87
X6.832Y-2.308
X6.9525Y-5.1925
X7.16Y-2.291
X7.1656Y-2.3706
X7.1706Y-3.1706
X7.174Y-3.284
X7.1794Y-4.972
X7.184Y-3.87
X7.187Y-4.887
X7.1875Y-4.81
X7.1906Y-3.9706
X7.437Y-3.242
X7.46Y-2.2
X7.46Y-2.995
X7.46Y-3.8
X7.465Y-4.6
X7.474Y-4.101
X7.477Y-2.64
X7.532Y-5.185
X7.6Y-4.225
X7.614Y-4.117
X7.6275Y-5.0
X7.6306Y-2.6394
X7.631Y-5.075
X7.634Y-2.506
X7.6406Y-3.4344
X7.646Y-3.488
X7.965Y-2.487
X7.9694Y-5.185
X7.9694Y-2.5706
X7.9706Y-3.3656
X7.9775Y-5.0
X7.98Y-5.074
X7.984Y-4.096
X7.993Y-3.483
X7.9931Y-4.1731
X8.225Y-2.644
X8.26Y-2.26
X8.26Y-3.055
X8.26Y-3.865
X8.26Y-4.665
X8.277Y-3.497
X8.283Y-4.248
X8.292Y-5.216
X8.379Y-3.539
X8.381Y-2.789
X8.4019Y-4.3069
X8.405Y-4.177
X8.42Y-5.06
X8.424Y-5.139
X8.4306Y-2.7044
X8.438Y-2.559
X8.4381Y-3.4969
X8.762Y-2.55
X8.7681Y-3.4281
X8.7706Y-2.6356
X8.773Y-3.53
X8.78Y-5.0625
X8.782Y-4.161
X8.782Y-5.139
X8.7831Y-4.2381
X8.7999Y-5.219
X8.8375Y-2.79
X8.948Y-4.448
X8.995Y-2.6831
X8.995Y-3.3749
X9.016Y-4.226
X5.715Y-3.0581
X5.715Y-3.1919
X7.315Y-2.3011
X7.315Y-2.435
X8.915Y-4.1706
X8.915Y-4.3044
X7.315Y-3.9031
X7.315Y-4.0369
X6.52Y-3.0475
X6.52Y-3.1814
X6.2875Y-5.5025
X6.2875Y-5.6364
X8.9175Y-4.9675
X8.9175Y-5.1014
X3.7306Y-5.7791
X3.7975Y-5.895
X7.315Y-3.1031
X7.315Y-3.2369
X7.315Y-4.7025
X7.315Y-4.8364
X4.9175Y-4.8031
X4.9175Y-4.9369
X6.5175Y-3.8481
X6.5175Y-3.9819
X4.915Y-2.4061
X4.915Y-2.54
X8.115Y-2.5011
X8.115Y-2.635
X5.715Y-4.7081
X5.715Y-4.8419
X8.915Y-3.3581
X8.915Y-3.4919
X5.715Y-2.3061
X5.715Y-2.44
X8.1175Y-3.2981
X8.1175Y-3.4319
X8.1175Y-4.9031
X8.1175Y-5.0369
X5.4825Y-5.5006
X5.4825Y-5.6344
X3.485Y-4.3986
X3.485Y-4.5325
X4.915Y-3.155
X4.915Y-3.2889
X4.9175Y-4.0031
X4.9175Y-4.1369
X3.201Y-4.399
X3.201Y-4.5329
X6.5175Y-4.6481
X6.5175Y-4.7819
X5.715Y-3.9061
X5.715Y-4.04
X6.52Y-2.2461
X6.52Y-2.38
X8.915Y-2.5661
X8.915Y-2.7
X8.1175Y-4.1031
X8.1175Y-4.2369
X4.6875Y-5.5931
X4.6875Y-5.7269
T3
X2.9975Y-2.26
X2.9975Y-2.66
X3.1175Y-2.26
X3.1175Y-2.66
T4
X3.3125Y-1.9075
X3.3125Y-2.0075
X3.3125Y-2.1075
X3.3125Y-2.2075
X3.3125Y-2.3075
X3.3125Y-2.4075
X3.3125Y-2.5075
X3.3125Y-2.6075
X3.3125Y-2.7075
X3.3125Y-2.8075
X3.3125Y-2.9075
X3.3125Y-3.0075
X3.3636Y-1.9546
X3.3636Y-2.0546
X3.3636Y-2.1546
X3.3636Y-2.2546
X3.3636Y-2.3546
X3.3636Y-2.4546
X3.3636Y-2.5546
X3.3636Y-2.6546
X3.3636Y-2.7546
X3.3636Y-2.8546
X3.3636Y-2.9546
X3.3636Y-3.0546
X3.9125Y-1.9075
X3.9125Y-2.0075
X3.9125Y-2.1075
X3.9125Y-2.2075
X3.9125Y-2.3075
X3.9125Y-2.4075
X3.9125Y-2.5075
X3.9125Y-2.6075
X3.9125Y-2.7075
X3.9125Y-2.8075
X3.9125Y-2.9075
X3.9125Y-3.0075
X3.9636Y-1.9546
X3.9636Y-2.0546
X3.9636Y-2.1546
X3.9636Y-2.2546
X3.9636Y-2.3546
X3.9636Y-2.4546
X3.9636Y-2.5546
X3.9636Y-2.6546
X3.9636Y-2.7546
X3.9636Y-2.8546
X3.9636Y-2.9546
X3.9636Y-3.0546
T5
X3.4975Y-3.25
X3.5975Y-3.25
X3.6975Y-3.25
X3.7975Y-3.25
T6
X3.06Y-3.675
X3.2025Y-3.675
T7
X2.5397Y-4.1816
X2.5397Y-4.28
X2.5397Y-4.3784
X3.1106Y-4.1816
X3.1106Y-4.3784
T9
X6.0519Y-3.6434
X6.3531Y-3.6434
X8.4494Y-3.1559
X8.7506Y-3.1559
X5.6469Y-5.2984
X5.9481Y-5.2984
X4.4519Y-3.8009
X4.7531Y-3.8009
X4.4519Y-4.5984
X4.7531Y-4.5984
X7.6519Y-3.9009
X7.9531Y-3.9009
X6.8494Y-2.0984
X7.1506Y-2.0984
X4.4494Y-2.2034
X4.7506Y-2.2034
X5.2494Y-2.1034
X5.5506Y-2.1034
X8.4494Y-2.3634
X8.7506Y-2.3634
X7.6519Y-4.6984
X7.9531Y-4.6984
X7.6494Y-2.2984
X7.9506Y-2.2984
X6.0544Y-2.0434
X6.3556Y-2.0434
X3.6494Y-4.1959
X3.9506Y-4.1959
X5.2494Y-4.5034
X5.5506Y-4.5034
X5.2494Y-2.9034
X5.5506Y-2.9034
X8.4519Y-4.7634
X8.7531Y-4.7634
X3.7714Y-5.5214
X4.0322Y-5.3708
X6.4519Y-5.2984
X6.7531Y-5.2984
X6.0544Y-2.8434
X6.3556Y-2.8434
X6.0519Y-4.4434
X6.3531Y-4.4434
X7.6519Y-3.0934
X7.9531Y-3.0934
X4.8519Y-5.3909
X5.1531Y-5.3909
X8.4494Y-3.9659
X8.7506Y-3.9659
X5.2494Y-3.7009
X5.5506Y-3.7009
X4.4494Y-3.0034
X4.7506Y-3.0034
X6.8494Y-2.8984
X7.1506Y-2.8984
X6.8494Y-4.5009
X7.1506Y-4.5009
X6.8494Y-3.6984
X7.1506Y-3.6984
T10
X2.9016Y-3.3425
X2.9016Y-3.4114
X3.1771Y-3.3425
X3.1771Y-3.4114
T11
X7.6025Y-4.0025
X8.0025Y-4.0025
X6.8Y-2.2
X7.2Y-2.2
X4.4Y-2.305
X4.8Y-2.305
X5.2Y-2.205
X5.6Y-2.205
X8.4Y-2.465
X8.8Y-2.465
X7.6025Y-4.8
X8.0025Y-4.8
X7.6Y-2.4
X8.0Y-2.4
X6.005Y-2.145
X6.405Y-2.145
X3.6Y-4.2975
X4.0Y-4.2975
X5.2Y-4.605
X5.6Y-4.605
X5.2Y-3.005
X5.6Y-3.005
X8.4025Y-4.865
X8.8025Y-4.865
X3.7794Y-5.6341
X4.1258Y-5.4341
X6.4025Y-5.4
X6.8025Y-5.4
X6.005Y-2.945
X6.405Y-2.945
X6.0025Y-4.545
X6.4025Y-4.545
X7.6025Y-3.195
X8.0025Y-3.195
X4.8025Y-5.4925
X5.2025Y-5.4925
X8.4Y-4.0675
X8.8Y-4.0675
X5.2Y-3.8025
X5.6Y-3.8025
X4.4Y-3.105
X4.8Y-3.105
X6.8Y-3.0
X7.2Y-3.0
X6.8Y-4.6025
X7.2Y-4.6025
X6.8Y-3.8
X7.2Y-3.8
X6.0025Y-3.745
X6.4025Y-3.745
X8.4Y-3.2575
X8.8Y-3.2575
X5.5975Y-5.4
X5.9975Y-5.4
X4.4025Y-3.9025
X4.8025Y-3.9025
X4.4025Y-4.7
X4.8025Y-4.7
T12
X7.586Y-4.0025
X8.019Y-4.0025
X6.7835Y-2.2
X7.2165Y-2.2
X4.3835Y-2.305
X4.8165Y-2.305
X5.1835Y-2.205
X5.6165Y-2.205
X8.3835Y-2.465
X8.8165Y-2.465
X7.586Y-4.8
X8.019Y-4.8
X7.5835Y-2.4
X8.0165Y-2.4
X5.9885Y-2.145
X6.4215Y-2.145
X3.5835Y-4.2975
X4.0165Y-4.2975
X5.1835Y-4.605
X5.6165Y-4.605
X5.1835Y-3.005
X5.6165Y-3.005
X8.386Y-4.865
X8.819Y-4.865
X3.7651Y-5.6424
X4.1401Y-5.4258
X6.386Y-5.4
X6.819Y-5.4
X5.9885Y-2.945
X6.4215Y-2.945
X5.986Y-4.545
X6.419Y-4.545
X7.586Y-3.195
X8.019Y-3.195
X4.786Y-5.4925
X5.219Y-5.4925
X8.3835Y-4.0675
X8.8165Y-4.0675
X5.1835Y-3.8025
X5.6165Y-3.8025
X4.3835Y-3.105
X4.8165Y-3.105
X6.7835Y-3.0
X7.2165Y-3.0
X6.7835Y-4.6025
X7.2165Y-4.6025
X6.7835Y-3.8
X7.2165Y-3.8
X5.986Y-3.745
X6.419Y-3.745
X8.3835Y-3.2575
X8.8165Y-3.2575
X5.581Y-5.4
X6.014Y-5.4
X4.386Y-3.9025
X4.819Y-3.9025
X4.386Y-4.7
X4.819Y-4.7
T13
X3.766Y-5.4109
X3.7727Y-5.5225
X3.9392Y-5.3109
X4.0325Y-5.3725
X4.0325Y-5.3725
X6.4525Y-5.3
X6.5025Y-5.2
X6.7025Y-5.2
X6.7525Y-5.3
X6.7525Y-5.3
X6.055Y-2.845
X6.105Y-2.745
X6.305Y-2.745
X6.355Y-2.845
X6.355Y-2.845
X6.0525Y-4.445
X6.1025Y-4.345
X6.3025Y-4.345
X6.3525Y-4.445
X6.3525Y-4.445
X7.6525Y-3.095
X7.7025Y-2.995
X7.9025Y-2.995
X7.9525Y-3.095
X7.9525Y-3.095
X4.8525Y-5.3925
X4.9025Y-5.2925
X5.1025Y-5.2925
X5.1525Y-5.3925
X5.1525Y-5.3925
X8.45Y-3.9675
X8.5Y-3.8675
X8.7Y-3.8675
X8.75Y-3.9675
X8.75Y-3.9675
X5.25Y-3.7025
X5.3Y-3.6025
X5.5Y-3.6025
X5.55Y-3.7025
X5.55Y-3.7025
X4.45Y-3.005
X4.5Y-2.905
X4.7Y-2.905
X4.75Y-3.005
X4.75Y-3.005
X6.85Y-2.9
X6.9Y-2.8
X7.1Y-2.8
X7.15Y-2.9
X7.15Y-2.9
X6.85Y-4.5025
X6.9Y-4.4025
X7.1Y-4.4025
X7.15Y-4.5025
X7.15Y-4.5025
X6.85Y-3.7
X6.9Y-3.6
X7.1Y-3.6
X7.15Y-3.7
X7.15Y-3.7
X6.0525Y-3.645
X6.1025Y-3.545
X6.3025Y-3.545
X6.3525Y-3.645
X6.3525Y-3.645
X8.45Y-3.1575
X8.5Y-3.0575
X8.7Y-3.0575
X8.75Y-3.1575
X8.75Y-3.1575
X5.6475Y-5.3
X5.6975Y-5.2
X5.8975Y-5.2
X5.9475Y-5.3
X5.9475Y-5.3
X4.4525Y-3.8025
X4.5025Y-3.7025
X4.7025Y-3.7025
X4.7525Y-3.8025
X4.7525Y-3.8025
X4.4525Y-4.6
X4.5025Y-4.5
X4.7025Y-4.5
X4.7525Y-4.6
X4.7525Y-4.6
X7.6525Y-3.9025
X7.7025Y-3.8025
X7.9025Y-3.8025
X7.9525Y-3.9025
X7.9525Y-3.9025
X6.85Y-2.1
X6.9Y-2.0
X7.1Y-2.0
X7.15Y-2.1
X7.15Y-2.1
X4.45Y-2.205
X4.5Y-2.105
X4.7Y-2.105
X4.75Y-2.205
X4.75Y-2.205
X5.25Y-2.105
X5.3Y-2.005
X5.5Y-2.005
X5.55Y-2.105
X5.55Y-2.105
X8.45Y-2.365
X8.5Y-2.265
X8.7Y-2.265
X8.75Y-2.365
X8.75Y-2.365
X7.6525Y-4.7
X7.7025Y-4.6
X7.9025Y-4.6
X7.9525Y-4.7
X7.9525Y-4.7
X7.65Y-2.3
X7.7Y-2.2
X7.9Y-2.2
X7.95Y-2.3
X7.95Y-2.3
X6.055Y-2.045
X6.105Y-1.945
X6.305Y-1.945
X6.355Y-2.045
X6.355Y-2.045
X3.65Y-4.1975
X3.7Y-4.0975
X3.9Y-4.0975
X3.95Y-4.1975
X3.95Y-4.1975
X5.25Y-4.505
X5.3Y-4.405
X5.5Y-4.405
X5.55Y-4.505
X5.55Y-4.505
X5.25Y-2.905
X5.3Y-2.805
X5.5Y-2.805
X5.55Y-2.905
X5.55Y-2.905
X8.4525Y-4.765
X8.5025Y-4.665
X8.7025Y-4.665
X8.7525Y-4.765
X8.7525Y-4.765
T14
X6.205Y-2.145
X3.8Y-4.2975
X5.4Y-4.605
X5.4Y-3.005
X8.6025Y-4.865
X3.9526Y-5.5341
X6.6025Y-5.4
X6.205Y-2.945
X6.2025Y-4.545
X7.8025Y-3.195
X5.0025Y-5.4925
X8.6Y-4.0675
X5.4Y-3.8025
X4.6Y-3.105
X7.0Y-3.0
X7.0Y-4.6025
X7.0Y-3.8
X6.2025Y-3.745
X8.6Y-3.2575
X5.7975Y-5.4
X4.6025Y-3.9025
X4.6025Y-4.7
X7.8025Y-4.0025
X7.0Y-2.2
X4.6Y-2.305
X5.4Y-2.205
X8.6Y-2.465
X7.8025Y-4.8
X7.8Y-2.4
T5
G00X2.9626Y-3.2598
M15
G01X2.9823Y-3.2598
M16
G05
G00X2.9626Y-3.4941
M15
G01X2.9823Y-3.4941
M16
G05
G00X3.0807Y-3.2598
M15
G01X3.1004Y-3.2598
M16
G05
G00X3.0807Y-3.4941
M15
G01X3.1004Y-3.4941
M16
G05
G00X3.2382Y-3.2598
M15
G01X3.2579Y-3.2598
M16
G05
G00X3.2382Y-3.4941
M15
G01X3.2579Y-3.4941
M16
G05
G00X3.2972Y-3.3287
M15
G01X3.3169Y-3.3287
M16
G05
G00X3.2972Y-3.4252
M15
G01X3.3169Y-3.4252
M16
G05
T8
G00X2.8507Y-4.0556
M15
G01X2.8193Y-4.0556
M16
G05
G00X2.8507Y-4.5044
M15
G01X2.8193Y-4.5044
M16
G05
T0
M30
