%TF.GenerationSoftware,KiCad,Pcbnew,(5.1.8)-1*%
%TF.CreationDate,2020-12-16T21:53:35-07:00*%
%TF.ProjectId,RGBCakeBoard,52474243-616b-4654-926f-6172642e6b69,rev?*%
%TF.SameCoordinates,Original*%
%TF.FileFunction,Soldermask,Bot*%
%TF.FilePolarity,Negative*%
%FSLAX46Y46*%
G04 Gerber Fmt 4.6, Leading zero omitted, Abs format (unit mm)*
G04 Created by KiCad (PCBNEW (5.1.8)-1) date 2020-12-16 21:53:35*
%MOMM*%
%LPD*%
G01*
G04 APERTURE LIST*
%ADD10R,0.700000X1.500000*%
%ADD11C,3.000000*%
%ADD12C,0.100000*%
%ADD13R,2.500000X2.500000*%
%ADD14C,4.000000*%
%ADD15C,1.900000*%
%ADD16C,1.700000*%
%ADD17R,2.400000X2.400000*%
%ADD18C,0.100000*%
%ADD19R,1.500000X1.800000*%
%ADD20O,2.500000X1.700000*%
%ADD21C,1.200000*%
%ADD22O,1.600000X1.600000*%
%ADD23C,1.600000*%
%ADD24R,1.650000X1.650000*%
%ADD25C,1.650000*%
%ADD26O,6.000000X3.000000*%
%ADD27R,1.600000X1.000000*%
%ADD28C,1.524000*%
%ADD29O,1.700000X1.700000*%
%ADD30R,1.700000X1.700000*%
%ADD31C,2.499360*%
G04 APERTURE END LIST*
D10*
%TO.C,SW13*%
X88020000Y-106656500D03*
X103720000Y-104056500D03*
D11*
X100330000Y-106616500D03*
X100330000Y-106616500D03*
X93980000Y-104076500D03*
D12*
X100345000Y-106576500D03*
X92695000Y-106576500D03*
D13*
X89620000Y-106616500D03*
D11*
X99060000Y-104076500D03*
D14*
X96520000Y-109156500D03*
D15*
X91020000Y-109156500D03*
X102020000Y-109156500D03*
D16*
X101600000Y-109156500D03*
X91440000Y-109156500D03*
D11*
X92710000Y-106616499D03*
D17*
X102220000Y-104076500D03*
%TD*%
D18*
%TO.C,SW20*%
G36*
X91856618Y-143475660D02*
G01*
X91106618Y-142176622D01*
X91712836Y-141826622D01*
X92462836Y-143125660D01*
X91856618Y-143475660D01*
G37*
G36*
X104153217Y-133373994D02*
G01*
X103403217Y-132074956D01*
X104009435Y-131724956D01*
X104759435Y-133023994D01*
X104153217Y-133373994D01*
G37*
D11*
X102425500Y-136461500D03*
X102425500Y-136461500D03*
X95656238Y-137436796D03*
D12*
X102418490Y-136419359D03*
X95793396Y-140244359D03*
D18*
G36*
X93607900Y-140108968D02*
G01*
X94857900Y-142274032D01*
X92692836Y-143524032D01*
X91442836Y-141358968D01*
X93607900Y-140108968D01*
G37*
D11*
X100055648Y-134896796D03*
D14*
X100395943Y-140566205D03*
D15*
X95632803Y-143316205D03*
X105159083Y-137816205D03*
D16*
X104795352Y-138026205D03*
X95996534Y-143106205D03*
D11*
X95826386Y-140271500D03*
D18*
G36*
X103231518Y-131677566D02*
G01*
X104431518Y-133756026D01*
X102353058Y-134956026D01*
X101153058Y-132877566D01*
X103231518Y-131677566D01*
G37*
%TD*%
D19*
%TO.C,D18*%
X206184500Y-107618000D03*
X206184500Y-104218000D03*
%TD*%
D20*
%TO.C,J3*%
X83999500Y-86999500D03*
X82499500Y-82799500D03*
X78499500Y-82799500D03*
X75499500Y-82799500D03*
D21*
X80699500Y-84899500D03*
X73699500Y-84899500D03*
D20*
X78499500Y-88749500D03*
X75499500Y-88749500D03*
X83999500Y-84549500D03*
X82499500Y-88749500D03*
D21*
X73699500Y-86649500D03*
X80699500Y-86649500D03*
%TD*%
D22*
%TO.C,R2*%
X79184500Y-67564000D03*
D23*
X79184500Y-57404000D03*
%TD*%
D22*
%TO.C,R1*%
X76136500Y-67564000D03*
D23*
X76136500Y-57404000D03*
%TD*%
D24*
%TO.C,SW31*%
X79009000Y-106212000D03*
D25*
X79009000Y-111212000D03*
X64509000Y-106212000D03*
X64509000Y-108712000D03*
X64509000Y-111212000D03*
D26*
X72009000Y-103012000D03*
X72009000Y-114412000D03*
%TD*%
D19*
%TO.C,D57*%
X81305400Y-115134600D03*
X81305400Y-111734600D03*
%TD*%
D18*
%TO.C,JP5*%
G36*
X87960102Y-77201000D02*
G01*
X87960102Y-77176466D01*
X87964912Y-77127635D01*
X87974484Y-77079510D01*
X87988728Y-77032555D01*
X88007505Y-76987222D01*
X88030636Y-76943949D01*
X88057896Y-76903150D01*
X88089024Y-76865221D01*
X88123721Y-76830524D01*
X88161650Y-76799396D01*
X88202449Y-76772136D01*
X88245722Y-76749005D01*
X88291055Y-76730228D01*
X88338010Y-76715984D01*
X88386135Y-76706412D01*
X88434966Y-76701602D01*
X88459500Y-76701602D01*
X88459500Y-76701000D01*
X88959500Y-76701000D01*
X88959500Y-76701602D01*
X88984034Y-76701602D01*
X89032865Y-76706412D01*
X89080990Y-76715984D01*
X89127945Y-76730228D01*
X89173278Y-76749005D01*
X89216551Y-76772136D01*
X89257350Y-76799396D01*
X89295279Y-76830524D01*
X89329976Y-76865221D01*
X89361104Y-76903150D01*
X89388364Y-76943949D01*
X89411495Y-76987222D01*
X89430272Y-77032555D01*
X89444516Y-77079510D01*
X89454088Y-77127635D01*
X89458898Y-77176466D01*
X89458898Y-77201000D01*
X89459500Y-77201000D01*
X89459500Y-77701000D01*
X87959500Y-77701000D01*
X87959500Y-77201000D01*
X87960102Y-77201000D01*
G37*
G36*
X89459500Y-78001000D02*
G01*
X89459500Y-78501000D01*
X89458898Y-78501000D01*
X89458898Y-78525534D01*
X89454088Y-78574365D01*
X89444516Y-78622490D01*
X89430272Y-78669445D01*
X89411495Y-78714778D01*
X89388364Y-78758051D01*
X89361104Y-78798850D01*
X89329976Y-78836779D01*
X89295279Y-78871476D01*
X89257350Y-78902604D01*
X89216551Y-78929864D01*
X89173278Y-78952995D01*
X89127945Y-78971772D01*
X89080990Y-78986016D01*
X89032865Y-78995588D01*
X88984034Y-79000398D01*
X88959500Y-79000398D01*
X88959500Y-79001000D01*
X88459500Y-79001000D01*
X88459500Y-79000398D01*
X88434966Y-79000398D01*
X88386135Y-78995588D01*
X88338010Y-78986016D01*
X88291055Y-78971772D01*
X88245722Y-78952995D01*
X88202449Y-78929864D01*
X88161650Y-78902604D01*
X88123721Y-78871476D01*
X88089024Y-78836779D01*
X88057896Y-78798850D01*
X88030636Y-78758051D01*
X88007505Y-78714778D01*
X87988728Y-78669445D01*
X87974484Y-78622490D01*
X87964912Y-78574365D01*
X87960102Y-78525534D01*
X87960102Y-78501000D01*
X87959500Y-78501000D01*
X87959500Y-78001000D01*
X89459500Y-78001000D01*
G37*
%TD*%
%TO.C,JP4*%
G36*
X90563602Y-77216000D02*
G01*
X90563602Y-77191466D01*
X90568412Y-77142635D01*
X90577984Y-77094510D01*
X90592228Y-77047555D01*
X90611005Y-77002222D01*
X90634136Y-76958949D01*
X90661396Y-76918150D01*
X90692524Y-76880221D01*
X90727221Y-76845524D01*
X90765150Y-76814396D01*
X90805949Y-76787136D01*
X90849222Y-76764005D01*
X90894555Y-76745228D01*
X90941510Y-76730984D01*
X90989635Y-76721412D01*
X91038466Y-76716602D01*
X91063000Y-76716602D01*
X91063000Y-76716000D01*
X91563000Y-76716000D01*
X91563000Y-76716602D01*
X91587534Y-76716602D01*
X91636365Y-76721412D01*
X91684490Y-76730984D01*
X91731445Y-76745228D01*
X91776778Y-76764005D01*
X91820051Y-76787136D01*
X91860850Y-76814396D01*
X91898779Y-76845524D01*
X91933476Y-76880221D01*
X91964604Y-76918150D01*
X91991864Y-76958949D01*
X92014995Y-77002222D01*
X92033772Y-77047555D01*
X92048016Y-77094510D01*
X92057588Y-77142635D01*
X92062398Y-77191466D01*
X92062398Y-77216000D01*
X92063000Y-77216000D01*
X92063000Y-77716000D01*
X90563000Y-77716000D01*
X90563000Y-77216000D01*
X90563602Y-77216000D01*
G37*
G36*
X92063000Y-78016000D02*
G01*
X92063000Y-78516000D01*
X92062398Y-78516000D01*
X92062398Y-78540534D01*
X92057588Y-78589365D01*
X92048016Y-78637490D01*
X92033772Y-78684445D01*
X92014995Y-78729778D01*
X91991864Y-78773051D01*
X91964604Y-78813850D01*
X91933476Y-78851779D01*
X91898779Y-78886476D01*
X91860850Y-78917604D01*
X91820051Y-78944864D01*
X91776778Y-78967995D01*
X91731445Y-78986772D01*
X91684490Y-79001016D01*
X91636365Y-79010588D01*
X91587534Y-79015398D01*
X91563000Y-79015398D01*
X91563000Y-79016000D01*
X91063000Y-79016000D01*
X91063000Y-79015398D01*
X91038466Y-79015398D01*
X90989635Y-79010588D01*
X90941510Y-79001016D01*
X90894555Y-78986772D01*
X90849222Y-78967995D01*
X90805949Y-78944864D01*
X90765150Y-78917604D01*
X90727221Y-78886476D01*
X90692524Y-78851779D01*
X90661396Y-78813850D01*
X90634136Y-78773051D01*
X90611005Y-78729778D01*
X90592228Y-78684445D01*
X90577984Y-78637490D01*
X90568412Y-78589365D01*
X90563602Y-78540534D01*
X90563602Y-78516000D01*
X90563000Y-78516000D01*
X90563000Y-78016000D01*
X92063000Y-78016000D01*
G37*
%TD*%
%TO.C,JP3*%
G36*
X93167102Y-77216000D02*
G01*
X93167102Y-77191466D01*
X93171912Y-77142635D01*
X93181484Y-77094510D01*
X93195728Y-77047555D01*
X93214505Y-77002222D01*
X93237636Y-76958949D01*
X93264896Y-76918150D01*
X93296024Y-76880221D01*
X93330721Y-76845524D01*
X93368650Y-76814396D01*
X93409449Y-76787136D01*
X93452722Y-76764005D01*
X93498055Y-76745228D01*
X93545010Y-76730984D01*
X93593135Y-76721412D01*
X93641966Y-76716602D01*
X93666500Y-76716602D01*
X93666500Y-76716000D01*
X94166500Y-76716000D01*
X94166500Y-76716602D01*
X94191034Y-76716602D01*
X94239865Y-76721412D01*
X94287990Y-76730984D01*
X94334945Y-76745228D01*
X94380278Y-76764005D01*
X94423551Y-76787136D01*
X94464350Y-76814396D01*
X94502279Y-76845524D01*
X94536976Y-76880221D01*
X94568104Y-76918150D01*
X94595364Y-76958949D01*
X94618495Y-77002222D01*
X94637272Y-77047555D01*
X94651516Y-77094510D01*
X94661088Y-77142635D01*
X94665898Y-77191466D01*
X94665898Y-77216000D01*
X94666500Y-77216000D01*
X94666500Y-77716000D01*
X93166500Y-77716000D01*
X93166500Y-77216000D01*
X93167102Y-77216000D01*
G37*
G36*
X94666500Y-78016000D02*
G01*
X94666500Y-78516000D01*
X94665898Y-78516000D01*
X94665898Y-78540534D01*
X94661088Y-78589365D01*
X94651516Y-78637490D01*
X94637272Y-78684445D01*
X94618495Y-78729778D01*
X94595364Y-78773051D01*
X94568104Y-78813850D01*
X94536976Y-78851779D01*
X94502279Y-78886476D01*
X94464350Y-78917604D01*
X94423551Y-78944864D01*
X94380278Y-78967995D01*
X94334945Y-78986772D01*
X94287990Y-79001016D01*
X94239865Y-79010588D01*
X94191034Y-79015398D01*
X94166500Y-79015398D01*
X94166500Y-79016000D01*
X93666500Y-79016000D01*
X93666500Y-79015398D01*
X93641966Y-79015398D01*
X93593135Y-79010588D01*
X93545010Y-79001016D01*
X93498055Y-78986772D01*
X93452722Y-78967995D01*
X93409449Y-78944864D01*
X93368650Y-78917604D01*
X93330721Y-78886476D01*
X93296024Y-78851779D01*
X93264896Y-78813850D01*
X93237636Y-78773051D01*
X93214505Y-78729778D01*
X93195728Y-78684445D01*
X93181484Y-78637490D01*
X93171912Y-78589365D01*
X93167102Y-78540534D01*
X93167102Y-78516000D01*
X93166500Y-78516000D01*
X93166500Y-78016000D01*
X94666500Y-78016000D01*
G37*
%TD*%
%TO.C,JP2*%
G36*
X95770602Y-77201000D02*
G01*
X95770602Y-77176466D01*
X95775412Y-77127635D01*
X95784984Y-77079510D01*
X95799228Y-77032555D01*
X95818005Y-76987222D01*
X95841136Y-76943949D01*
X95868396Y-76903150D01*
X95899524Y-76865221D01*
X95934221Y-76830524D01*
X95972150Y-76799396D01*
X96012949Y-76772136D01*
X96056222Y-76749005D01*
X96101555Y-76730228D01*
X96148510Y-76715984D01*
X96196635Y-76706412D01*
X96245466Y-76701602D01*
X96270000Y-76701602D01*
X96270000Y-76701000D01*
X96770000Y-76701000D01*
X96770000Y-76701602D01*
X96794534Y-76701602D01*
X96843365Y-76706412D01*
X96891490Y-76715984D01*
X96938445Y-76730228D01*
X96983778Y-76749005D01*
X97027051Y-76772136D01*
X97067850Y-76799396D01*
X97105779Y-76830524D01*
X97140476Y-76865221D01*
X97171604Y-76903150D01*
X97198864Y-76943949D01*
X97221995Y-76987222D01*
X97240772Y-77032555D01*
X97255016Y-77079510D01*
X97264588Y-77127635D01*
X97269398Y-77176466D01*
X97269398Y-77201000D01*
X97270000Y-77201000D01*
X97270000Y-77701000D01*
X95770000Y-77701000D01*
X95770000Y-77201000D01*
X95770602Y-77201000D01*
G37*
G36*
X97270000Y-78001000D02*
G01*
X97270000Y-78501000D01*
X97269398Y-78501000D01*
X97269398Y-78525534D01*
X97264588Y-78574365D01*
X97255016Y-78622490D01*
X97240772Y-78669445D01*
X97221995Y-78714778D01*
X97198864Y-78758051D01*
X97171604Y-78798850D01*
X97140476Y-78836779D01*
X97105779Y-78871476D01*
X97067850Y-78902604D01*
X97027051Y-78929864D01*
X96983778Y-78952995D01*
X96938445Y-78971772D01*
X96891490Y-78986016D01*
X96843365Y-78995588D01*
X96794534Y-79000398D01*
X96770000Y-79000398D01*
X96770000Y-79001000D01*
X96270000Y-79001000D01*
X96270000Y-79000398D01*
X96245466Y-79000398D01*
X96196635Y-78995588D01*
X96148510Y-78986016D01*
X96101555Y-78971772D01*
X96056222Y-78952995D01*
X96012949Y-78929864D01*
X95972150Y-78902604D01*
X95934221Y-78871476D01*
X95899524Y-78836779D01*
X95868396Y-78798850D01*
X95841136Y-78758051D01*
X95818005Y-78714778D01*
X95799228Y-78669445D01*
X95784984Y-78622490D01*
X95775412Y-78574365D01*
X95770602Y-78525534D01*
X95770602Y-78501000D01*
X95770000Y-78501000D01*
X95770000Y-78001000D01*
X97270000Y-78001000D01*
G37*
%TD*%
D10*
%TO.C,SW16*%
X149043500Y-92623000D03*
X164743500Y-90023000D03*
D11*
X161353500Y-92583000D03*
X161353500Y-92583000D03*
X155003500Y-90043000D03*
D12*
X161368500Y-92543000D03*
X153718500Y-92543000D03*
D13*
X150643500Y-92583000D03*
D11*
X160083500Y-90043000D03*
D14*
X157543500Y-95123000D03*
D15*
X152043500Y-95123000D03*
X163043500Y-95123000D03*
D16*
X162623500Y-95123000D03*
X152463500Y-95123000D03*
D11*
X153733500Y-92582999D03*
D17*
X163243500Y-90043000D03*
%TD*%
D27*
%TO.C,D58*%
X165303500Y-141492000D03*
X165303500Y-143242000D03*
X170103500Y-143242000D03*
X170103500Y-141492000D03*
%TD*%
%TO.C,D57*%
X144856500Y-141492000D03*
X144856500Y-143242000D03*
X149656500Y-143242000D03*
X149656500Y-141492000D03*
%TD*%
D28*
%TO.C,U1*%
X99377500Y-48450500D03*
X99377500Y-50990500D03*
X99377500Y-53530500D03*
X99377500Y-56070500D03*
X99377500Y-58610500D03*
X99377500Y-61150500D03*
X99377500Y-63690500D03*
X99377500Y-66230500D03*
X99377500Y-68770500D03*
X99377500Y-71310500D03*
X99377500Y-73850500D03*
X99377500Y-76390500D03*
X84137500Y-76390500D03*
X84137500Y-73850500D03*
X84137500Y-71310500D03*
X84137500Y-68770500D03*
X84137500Y-66230500D03*
X84137500Y-63690500D03*
X84137500Y-61150500D03*
X84137500Y-58610500D03*
X84137500Y-56070500D03*
X84137500Y-53530500D03*
X84137500Y-50990500D03*
X84137500Y-48450500D03*
X100676315Y-59806245D03*
X100676315Y-64886245D03*
X85436315Y-49646245D03*
X100676315Y-52186245D03*
X100676315Y-75046245D03*
X85436315Y-77586245D03*
X100676315Y-67426245D03*
X100676315Y-69966245D03*
X85436315Y-67426245D03*
X85436315Y-72506245D03*
X85436315Y-59806245D03*
X85436315Y-57266245D03*
X85436315Y-52186245D03*
X85436315Y-62346245D03*
X100676315Y-77586245D03*
X85436315Y-69966245D03*
X100676315Y-49646245D03*
X100676315Y-54726245D03*
X85436315Y-75046245D03*
X100676315Y-57266245D03*
X100676315Y-62346245D03*
X85436315Y-64886245D03*
X100676315Y-72506245D03*
X85436315Y-54726245D03*
%TD*%
D29*
%TO.C,J4*%
X96456500Y-82550000D03*
X93916500Y-82550000D03*
X91376500Y-82550000D03*
D30*
X88836500Y-82550000D03*
%TD*%
D19*
%TO.C,D29*%
X159702500Y-143163500D03*
X159702500Y-139763500D03*
%TD*%
%TO.C,D28*%
X139255500Y-143114500D03*
X139255500Y-139714500D03*
%TD*%
%TO.C,D27*%
X119062500Y-145464000D03*
X119062500Y-142064000D03*
%TD*%
%TO.C,D26*%
X226504500Y-129574500D03*
X226504500Y-126174500D03*
%TD*%
%TO.C,D25*%
X206184500Y-127938000D03*
X206184500Y-124538000D03*
%TD*%
%TO.C,D24*%
X185801000Y-122843500D03*
X185801000Y-119443500D03*
%TD*%
%TO.C,D23*%
X165544500Y-121461000D03*
X165544500Y-118061000D03*
%TD*%
%TO.C,D22*%
X145161000Y-122985000D03*
X145161000Y-119585000D03*
%TD*%
%TO.C,D21*%
X124904500Y-125398000D03*
X124904500Y-121998000D03*
%TD*%
D18*
%TO.C,D20*%
G36*
X97556019Y-150137423D02*
G01*
X96256981Y-150887423D01*
X95356981Y-149328577D01*
X96656019Y-148578577D01*
X97556019Y-150137423D01*
G37*
G36*
X95856019Y-147192937D02*
G01*
X94556981Y-147942937D01*
X93656981Y-146384091D01*
X94956019Y-145634091D01*
X95856019Y-147192937D01*
G37*
%TD*%
D19*
%TO.C,D19*%
X226441000Y-109332500D03*
X226441000Y-105932500D03*
%TD*%
%TO.C,D17*%
X185801000Y-102538000D03*
X185801000Y-99138000D03*
%TD*%
%TO.C,D16*%
X165544500Y-101141000D03*
X165544500Y-97741000D03*
%TD*%
%TO.C,D15*%
X145161000Y-102616000D03*
X145161000Y-99216000D03*
%TD*%
%TO.C,D14*%
X124904500Y-105078000D03*
X124904500Y-101678000D03*
%TD*%
%TO.C,D13*%
X88519000Y-115125500D03*
X88519000Y-111725500D03*
%TD*%
%TO.C,D12*%
X226441000Y-88695000D03*
X226441000Y-85295000D03*
%TD*%
%TO.C,D11*%
X206184500Y-87171000D03*
X206184500Y-83771000D03*
%TD*%
%TO.C,D10*%
X185801000Y-82218000D03*
X185801000Y-78818000D03*
%TD*%
%TO.C,D9*%
X165608000Y-80806500D03*
X165608000Y-77406500D03*
%TD*%
%TO.C,D8*%
X145161000Y-81075000D03*
X145161000Y-77675000D03*
%TD*%
%TO.C,D7*%
X124841000Y-83537000D03*
X124841000Y-80137000D03*
%TD*%
%TO.C,D6*%
X226441000Y-68580000D03*
X226441000Y-65180000D03*
%TD*%
%TO.C,D5*%
X206121000Y-66929000D03*
X206121000Y-63529000D03*
%TD*%
%TO.C,D4*%
X185801000Y-61849000D03*
X185801000Y-58449000D03*
%TD*%
%TO.C,D3*%
X165608000Y-60452000D03*
X165608000Y-57052000D03*
%TD*%
%TO.C,D2*%
X145161000Y-61976000D03*
X145161000Y-58576000D03*
%TD*%
%TO.C,D1*%
X124841000Y-64516000D03*
X124841000Y-61116000D03*
%TD*%
D31*
%TO.C,J2*%
X77724000Y-93345000D03*
%TD*%
%TO.C,J1*%
X81343500Y-93345000D03*
%TD*%
D27*
%TO.C,D56*%
X124663500Y-143841500D03*
X124663500Y-145591500D03*
X129463500Y-145591500D03*
X129463500Y-143841500D03*
%TD*%
D18*
%TO.C,D55*%
G36*
X100923859Y-144706715D02*
G01*
X101423859Y-145572741D01*
X100038219Y-146372741D01*
X99538219Y-145506715D01*
X100923859Y-144706715D01*
G37*
G36*
X101798859Y-146222259D02*
G01*
X102298859Y-147088285D01*
X100913219Y-147888285D01*
X100413219Y-147022259D01*
X101798859Y-146222259D01*
G37*
G36*
X105955781Y-143822259D02*
G01*
X106455781Y-144688285D01*
X105070141Y-145488285D01*
X104570141Y-144622259D01*
X105955781Y-143822259D01*
G37*
G36*
X105080781Y-142306715D02*
G01*
X105580781Y-143172741D01*
X104195141Y-143972741D01*
X103695141Y-143106715D01*
X105080781Y-142306715D01*
G37*
%TD*%
D27*
%TO.C,D54*%
X119303500Y-125462000D03*
X119303500Y-123712000D03*
X114503500Y-123712000D03*
X114503500Y-125462000D03*
%TD*%
%TO.C,D53*%
X139560000Y-123049000D03*
X139560000Y-121299000D03*
X134760000Y-121299000D03*
X134760000Y-123049000D03*
%TD*%
%TO.C,D52*%
X159943500Y-121525000D03*
X159943500Y-119775000D03*
X155143500Y-119775000D03*
X155143500Y-121525000D03*
%TD*%
%TO.C,D51*%
X180200000Y-122985500D03*
X180200000Y-121235500D03*
X175400000Y-121235500D03*
X175400000Y-122985500D03*
%TD*%
%TO.C,D50*%
X200583500Y-128002000D03*
X200583500Y-126252000D03*
X195783500Y-126252000D03*
X195783500Y-128002000D03*
%TD*%
%TO.C,D49*%
X220903500Y-129653000D03*
X220903500Y-127903000D03*
X216103500Y-127903000D03*
X216103500Y-129653000D03*
%TD*%
%TO.C,D48*%
X216040000Y-107646500D03*
X216040000Y-109396500D03*
X220840000Y-109396500D03*
X220840000Y-107646500D03*
%TD*%
%TO.C,D47*%
X195783500Y-105995500D03*
X195783500Y-107745500D03*
X200583500Y-107745500D03*
X200583500Y-105995500D03*
%TD*%
%TO.C,D46*%
X175400000Y-100852000D03*
X175400000Y-102602000D03*
X180200000Y-102602000D03*
X180200000Y-100852000D03*
%TD*%
%TO.C,D45*%
X155143500Y-99455000D03*
X155143500Y-101205000D03*
X159943500Y-101205000D03*
X159943500Y-99455000D03*
%TD*%
%TO.C,D44*%
X134760000Y-100915500D03*
X134760000Y-102665500D03*
X139560000Y-102665500D03*
X139560000Y-100915500D03*
%TD*%
%TO.C,D43*%
X114503500Y-103455500D03*
X114503500Y-105205500D03*
X119303500Y-105205500D03*
X119303500Y-103455500D03*
%TD*%
%TO.C,D42*%
X98920000Y-115238500D03*
X98920000Y-113488500D03*
X94120000Y-113488500D03*
X94120000Y-115238500D03*
%TD*%
%TO.C,D41*%
X119240000Y-84949000D03*
X119240000Y-83199000D03*
X114440000Y-83199000D03*
X114440000Y-84949000D03*
%TD*%
%TO.C,D40*%
X139560000Y-82409000D03*
X139560000Y-80659000D03*
X134760000Y-80659000D03*
X134760000Y-82409000D03*
%TD*%
%TO.C,D39*%
X160020000Y-80899000D03*
X160020000Y-79149000D03*
X155220000Y-79149000D03*
X155220000Y-80899000D03*
%TD*%
%TO.C,D38*%
X180200000Y-82282000D03*
X180200000Y-80532000D03*
X175400000Y-80532000D03*
X175400000Y-82282000D03*
%TD*%
%TO.C,D37*%
X200583500Y-87235000D03*
X200583500Y-85485000D03*
X195783500Y-85485000D03*
X195783500Y-87235000D03*
%TD*%
%TO.C,D36*%
X220840000Y-88822500D03*
X220840000Y-87072500D03*
X216040000Y-87072500D03*
X216040000Y-88822500D03*
%TD*%
%TO.C,D35*%
X216040000Y-66943000D03*
X216040000Y-68693000D03*
X220840000Y-68693000D03*
X220840000Y-66943000D03*
%TD*%
%TO.C,D34*%
X195720000Y-65292000D03*
X195720000Y-67042000D03*
X200520000Y-67042000D03*
X200520000Y-65292000D03*
%TD*%
%TO.C,D33*%
X175400000Y-60212000D03*
X175400000Y-61962000D03*
X180200000Y-61962000D03*
X180200000Y-60212000D03*
%TD*%
%TO.C,D32*%
X155207000Y-58815000D03*
X155207000Y-60565000D03*
X160007000Y-60565000D03*
X160007000Y-58815000D03*
%TD*%
%TO.C,D31*%
X134760000Y-60339000D03*
X134760000Y-62089000D03*
X139560000Y-62089000D03*
X139560000Y-60339000D03*
%TD*%
%TO.C,D30*%
X114440000Y-62879000D03*
X114440000Y-64629000D03*
X119240000Y-64629000D03*
X119240000Y-62879000D03*
%TD*%
D10*
%TO.C,SW29*%
X159203500Y-134660000D03*
X174903500Y-132060000D03*
D11*
X171513500Y-134620000D03*
X171513500Y-134620000D03*
X165163500Y-132080000D03*
D12*
X171528500Y-134580000D03*
X163878500Y-134580000D03*
D13*
X160803500Y-134620000D03*
D11*
X170243500Y-132080000D03*
D14*
X167703500Y-137160000D03*
D15*
X162203500Y-137160000D03*
X173203500Y-137160000D03*
D16*
X172783500Y-137160000D03*
X162623500Y-137160000D03*
D11*
X163893500Y-134619999D03*
D17*
X173403500Y-132080000D03*
%TD*%
D10*
%TO.C,SW28*%
X138756500Y-134660000D03*
X154456500Y-132060000D03*
D11*
X151066500Y-134620000D03*
X151066500Y-134620000D03*
X144716500Y-132080000D03*
D12*
X151081500Y-134580000D03*
X143431500Y-134580000D03*
D13*
X140356500Y-134620000D03*
D11*
X149796500Y-132080000D03*
D14*
X147256500Y-137160000D03*
D15*
X141756500Y-137160000D03*
X152756500Y-137160000D03*
D16*
X152336500Y-137160000D03*
X142176500Y-137160000D03*
D11*
X143446500Y-134619999D03*
D17*
X152956500Y-132080000D03*
%TD*%
D10*
%TO.C,SW27*%
X118563500Y-137009500D03*
X134263500Y-134409500D03*
D11*
X130873500Y-136969500D03*
X130873500Y-136969500D03*
X124523500Y-134429500D03*
D12*
X130888500Y-136929500D03*
X123238500Y-136929500D03*
D13*
X120163500Y-136969500D03*
D11*
X129603500Y-134429500D03*
D14*
X127063500Y-139509500D03*
D15*
X121563500Y-139509500D03*
X132563500Y-139509500D03*
D16*
X132143500Y-139509500D03*
X121983500Y-139509500D03*
D11*
X123253500Y-136969499D03*
D17*
X132763500Y-134429500D03*
%TD*%
D10*
%TO.C,SW26*%
X210003500Y-121071000D03*
X225703500Y-118471000D03*
D11*
X222313500Y-121031000D03*
X222313500Y-121031000D03*
X215963500Y-118491000D03*
D12*
X222328500Y-120991000D03*
X214678500Y-120991000D03*
D13*
X211603500Y-121031000D03*
D11*
X221043500Y-118491000D03*
D14*
X218503500Y-123571000D03*
D15*
X213003500Y-123571000D03*
X224003500Y-123571000D03*
D16*
X223583500Y-123571000D03*
X213423500Y-123571000D03*
D11*
X214693500Y-121030999D03*
D17*
X224203500Y-118491000D03*
%TD*%
D10*
%TO.C,SW25*%
X189683500Y-119420000D03*
X205383500Y-116820000D03*
D11*
X201993500Y-119380000D03*
X201993500Y-119380000D03*
X195643500Y-116840000D03*
D12*
X202008500Y-119340000D03*
X194358500Y-119340000D03*
D13*
X191283500Y-119380000D03*
D11*
X200723500Y-116840000D03*
D14*
X198183500Y-121920000D03*
D15*
X192683500Y-121920000D03*
X203683500Y-121920000D03*
D16*
X203263500Y-121920000D03*
X193103500Y-121920000D03*
D11*
X194373500Y-119379999D03*
D17*
X203883500Y-116840000D03*
%TD*%
D10*
%TO.C,SW24*%
X169300000Y-114403500D03*
X185000000Y-111803500D03*
D11*
X181610000Y-114363500D03*
X181610000Y-114363500D03*
X175260000Y-111823500D03*
D12*
X181625000Y-114323500D03*
X173975000Y-114323500D03*
D13*
X170900000Y-114363500D03*
D11*
X180340000Y-111823500D03*
D14*
X177800000Y-116903500D03*
D15*
X172300000Y-116903500D03*
X183300000Y-116903500D03*
D16*
X182880000Y-116903500D03*
X172720000Y-116903500D03*
D11*
X173990000Y-114363499D03*
D17*
X183500000Y-111823500D03*
%TD*%
D10*
%TO.C,SW23*%
X149043500Y-112943000D03*
X164743500Y-110343000D03*
D11*
X161353500Y-112903000D03*
X161353500Y-112903000D03*
X155003500Y-110363000D03*
D12*
X161368500Y-112863000D03*
X153718500Y-112863000D03*
D13*
X150643500Y-112903000D03*
D11*
X160083500Y-110363000D03*
D14*
X157543500Y-115443000D03*
D15*
X152043500Y-115443000D03*
X163043500Y-115443000D03*
D16*
X162623500Y-115443000D03*
X152463500Y-115443000D03*
D11*
X153733500Y-112902999D03*
D17*
X163243500Y-110363000D03*
%TD*%
D10*
%TO.C,SW22*%
X128660000Y-114467000D03*
X144360000Y-111867000D03*
D11*
X140970000Y-114427000D03*
X140970000Y-114427000D03*
X134620000Y-111887000D03*
D12*
X140985000Y-114387000D03*
X133335000Y-114387000D03*
D13*
X130260000Y-114427000D03*
D11*
X139700000Y-111887000D03*
D14*
X137160000Y-116967000D03*
D15*
X131660000Y-116967000D03*
X142660000Y-116967000D03*
D16*
X142240000Y-116967000D03*
X132080000Y-116967000D03*
D11*
X133350000Y-114426999D03*
D17*
X142860000Y-111887000D03*
%TD*%
D10*
%TO.C,SW21*%
X108403500Y-116880000D03*
X124103500Y-114280000D03*
D11*
X120713500Y-116840000D03*
X120713500Y-116840000D03*
X114363500Y-114300000D03*
D12*
X120728500Y-116800000D03*
X113078500Y-116800000D03*
D13*
X110003500Y-116840000D03*
D11*
X119443500Y-114300000D03*
D14*
X116903500Y-119380000D03*
D15*
X111403500Y-119380000D03*
X122403500Y-119380000D03*
D16*
X121983500Y-119380000D03*
X111823500Y-119380000D03*
D11*
X113093500Y-116839999D03*
D17*
X122603500Y-114300000D03*
%TD*%
D10*
%TO.C,SW19*%
X209940000Y-100814500D03*
X225640000Y-98214500D03*
D11*
X222250000Y-100774500D03*
X222250000Y-100774500D03*
X215900000Y-98234500D03*
D12*
X222265000Y-100734500D03*
X214615000Y-100734500D03*
D13*
X211540000Y-100774500D03*
D11*
X220980000Y-98234500D03*
D14*
X218440000Y-103314500D03*
D15*
X212940000Y-103314500D03*
X223940000Y-103314500D03*
D16*
X223520000Y-103314500D03*
X213360000Y-103314500D03*
D11*
X214630000Y-100774499D03*
D17*
X224140000Y-98234500D03*
%TD*%
D10*
%TO.C,SW18*%
X189683500Y-99163500D03*
X205383500Y-96563500D03*
D11*
X201993500Y-99123500D03*
X201993500Y-99123500D03*
X195643500Y-96583500D03*
D12*
X202008500Y-99083500D03*
X194358500Y-99083500D03*
D13*
X191283500Y-99123500D03*
D11*
X200723500Y-96583500D03*
D14*
X198183500Y-101663500D03*
D15*
X192683500Y-101663500D03*
X203683500Y-101663500D03*
D16*
X203263500Y-101663500D03*
X193103500Y-101663500D03*
D11*
X194373500Y-99123499D03*
D17*
X203883500Y-96583500D03*
%TD*%
D10*
%TO.C,SW17*%
X169300000Y-94020000D03*
X185000000Y-91420000D03*
D11*
X181610000Y-93980000D03*
X181610000Y-93980000D03*
X175260000Y-91440000D03*
D12*
X181625000Y-93940000D03*
X173975000Y-93940000D03*
D13*
X170900000Y-93980000D03*
D11*
X180340000Y-91440000D03*
D14*
X177800000Y-96520000D03*
D15*
X172300000Y-96520000D03*
X183300000Y-96520000D03*
D16*
X182880000Y-96520000D03*
X172720000Y-96520000D03*
D11*
X173990000Y-93979999D03*
D17*
X183500000Y-91440000D03*
%TD*%
D10*
%TO.C,SW15*%
X128660000Y-94083500D03*
X144360000Y-91483500D03*
D11*
X140970000Y-94043500D03*
X140970000Y-94043500D03*
X134620000Y-91503500D03*
D12*
X140985000Y-94003500D03*
X133335000Y-94003500D03*
D13*
X130260000Y-94043500D03*
D11*
X139700000Y-91503500D03*
D14*
X137160000Y-96583500D03*
D15*
X131660000Y-96583500D03*
X142660000Y-96583500D03*
D16*
X142240000Y-96583500D03*
X132080000Y-96583500D03*
D11*
X133350000Y-94043499D03*
D17*
X142860000Y-91503500D03*
%TD*%
D10*
%TO.C,SW14*%
X108403500Y-96623500D03*
X124103500Y-94023500D03*
D11*
X120713500Y-96583500D03*
X120713500Y-96583500D03*
X114363500Y-94043500D03*
D12*
X120728500Y-96543500D03*
X113078500Y-96543500D03*
D13*
X110003500Y-96583500D03*
D11*
X119443500Y-94043500D03*
D14*
X116903500Y-99123500D03*
D15*
X111403500Y-99123500D03*
X122403500Y-99123500D03*
D16*
X121983500Y-99123500D03*
X111823500Y-99123500D03*
D11*
X113093500Y-96583499D03*
D17*
X122603500Y-94043500D03*
%TD*%
D10*
%TO.C,SW12*%
X209940000Y-80240500D03*
X225640000Y-77640500D03*
D11*
X222250000Y-80200500D03*
X222250000Y-80200500D03*
X215900000Y-77660500D03*
D12*
X222265000Y-80160500D03*
X214615000Y-80160500D03*
D13*
X211540000Y-80200500D03*
D11*
X220980000Y-77660500D03*
D14*
X218440000Y-82740500D03*
D15*
X212940000Y-82740500D03*
X223940000Y-82740500D03*
D16*
X223520000Y-82740500D03*
X213360000Y-82740500D03*
D11*
X214630000Y-80200499D03*
D17*
X224140000Y-77660500D03*
%TD*%
D10*
%TO.C,SW11*%
X189683500Y-78653000D03*
X205383500Y-76053000D03*
D11*
X201993500Y-78613000D03*
X201993500Y-78613000D03*
X195643500Y-76073000D03*
D12*
X202008500Y-78573000D03*
X194358500Y-78573000D03*
D13*
X191283500Y-78613000D03*
D11*
X200723500Y-76073000D03*
D14*
X198183500Y-81153000D03*
D15*
X192683500Y-81153000D03*
X203683500Y-81153000D03*
D16*
X203263500Y-81153000D03*
X193103500Y-81153000D03*
D11*
X194373500Y-78612999D03*
D17*
X203883500Y-76073000D03*
%TD*%
D10*
%TO.C,SW10*%
X169300000Y-73700000D03*
X185000000Y-71100000D03*
D11*
X181610000Y-73660000D03*
X181610000Y-73660000D03*
X175260000Y-71120000D03*
D12*
X181625000Y-73620000D03*
X173975000Y-73620000D03*
D13*
X170900000Y-73660000D03*
D11*
X180340000Y-71120000D03*
D14*
X177800000Y-76200000D03*
D15*
X172300000Y-76200000D03*
X183300000Y-76200000D03*
D16*
X182880000Y-76200000D03*
X172720000Y-76200000D03*
D11*
X173990000Y-73659999D03*
D17*
X183500000Y-71120000D03*
%TD*%
D10*
%TO.C,SW9*%
X149107000Y-72303000D03*
X164807000Y-69703000D03*
D11*
X161417000Y-72263000D03*
X161417000Y-72263000D03*
X155067000Y-69723000D03*
D12*
X161432000Y-72223000D03*
X153782000Y-72223000D03*
D13*
X150707000Y-72263000D03*
D11*
X160147000Y-69723000D03*
D14*
X157607000Y-74803000D03*
D15*
X152107000Y-74803000D03*
X163107000Y-74803000D03*
D16*
X162687000Y-74803000D03*
X152527000Y-74803000D03*
D11*
X153797000Y-72262999D03*
D17*
X163307000Y-69723000D03*
%TD*%
D10*
%TO.C,SW8*%
X128660000Y-73827000D03*
X144360000Y-71227000D03*
D11*
X140970000Y-73787000D03*
X140970000Y-73787000D03*
X134620000Y-71247000D03*
D12*
X140985000Y-73747000D03*
X133335000Y-73747000D03*
D13*
X130260000Y-73787000D03*
D11*
X139700000Y-71247000D03*
D14*
X137160000Y-76327000D03*
D15*
X131660000Y-76327000D03*
X142660000Y-76327000D03*
D16*
X142240000Y-76327000D03*
X132080000Y-76327000D03*
D11*
X133350000Y-73786999D03*
D17*
X142860000Y-71247000D03*
%TD*%
D10*
%TO.C,SW7*%
X108340000Y-76367000D03*
X124040000Y-73767000D03*
D11*
X120650000Y-76327000D03*
X120650000Y-76327000D03*
X114300000Y-73787000D03*
D12*
X120665000Y-76287000D03*
X113015000Y-76287000D03*
D13*
X109940000Y-76327000D03*
D11*
X119380000Y-73787000D03*
D14*
X116840000Y-78867000D03*
D15*
X111340000Y-78867000D03*
X122340000Y-78867000D03*
D16*
X121920000Y-78867000D03*
X111760000Y-78867000D03*
D11*
X113030000Y-76326999D03*
D17*
X122540000Y-73787000D03*
%TD*%
D10*
%TO.C,SW6*%
X209940000Y-60111000D03*
X225640000Y-57511000D03*
D11*
X222250000Y-60071000D03*
X222250000Y-60071000D03*
X215900000Y-57531000D03*
D12*
X222265000Y-60031000D03*
X214615000Y-60031000D03*
D13*
X211540000Y-60071000D03*
D11*
X220980000Y-57531000D03*
D14*
X218440000Y-62611000D03*
D15*
X212940000Y-62611000D03*
X223940000Y-62611000D03*
D16*
X223520000Y-62611000D03*
X213360000Y-62611000D03*
D11*
X214630000Y-60070999D03*
D17*
X224140000Y-57531000D03*
%TD*%
D10*
%TO.C,SW5*%
X189620000Y-58460000D03*
X205320000Y-55860000D03*
D11*
X201930000Y-58420000D03*
X201930000Y-58420000D03*
X195580000Y-55880000D03*
D12*
X201945000Y-58380000D03*
X194295000Y-58380000D03*
D13*
X191220000Y-58420000D03*
D11*
X200660000Y-55880000D03*
D14*
X198120000Y-60960000D03*
D15*
X192620000Y-60960000D03*
X203620000Y-60960000D03*
D16*
X203200000Y-60960000D03*
X193040000Y-60960000D03*
D11*
X194310000Y-58419999D03*
D17*
X203820000Y-55880000D03*
%TD*%
D10*
%TO.C,SW4*%
X169300000Y-53380000D03*
X185000000Y-50780000D03*
D11*
X181610000Y-53340000D03*
X181610000Y-53340000D03*
X175260000Y-50800000D03*
D12*
X181625000Y-53300000D03*
X173975000Y-53300000D03*
D13*
X170900000Y-53340000D03*
D11*
X180340000Y-50800000D03*
D14*
X177800000Y-55880000D03*
D15*
X172300000Y-55880000D03*
X183300000Y-55880000D03*
D16*
X182880000Y-55880000D03*
X172720000Y-55880000D03*
D11*
X173990000Y-53339999D03*
D17*
X183500000Y-50800000D03*
%TD*%
D10*
%TO.C,SW3*%
X149107000Y-51983001D03*
X164807000Y-49383001D03*
D11*
X161417000Y-51943001D03*
X161417000Y-51943001D03*
X155067000Y-49403001D03*
D12*
X161432000Y-51903001D03*
X153782000Y-51903001D03*
D13*
X150707000Y-51943001D03*
D11*
X160147000Y-49403001D03*
D14*
X157607000Y-54483001D03*
D15*
X152107000Y-54483001D03*
X163107000Y-54483001D03*
D16*
X162687000Y-54483001D03*
X152527000Y-54483001D03*
D11*
X153797000Y-51943000D03*
D17*
X163307000Y-49403001D03*
%TD*%
D10*
%TO.C,SW2*%
X128660000Y-53507000D03*
X144360000Y-50907000D03*
D11*
X140970000Y-53467000D03*
X140970000Y-53467000D03*
X134620000Y-50927000D03*
D12*
X140985000Y-53427000D03*
X133335000Y-53427000D03*
D13*
X130260000Y-53467000D03*
D11*
X139700000Y-50927000D03*
D14*
X137160000Y-56007000D03*
D15*
X131660000Y-56007000D03*
X142660000Y-56007000D03*
D16*
X142240000Y-56007000D03*
X132080000Y-56007000D03*
D11*
X133350000Y-53466999D03*
D17*
X142860000Y-50927000D03*
%TD*%
D10*
%TO.C,SW1*%
X108340000Y-56047000D03*
X124040000Y-53447000D03*
D11*
X120650000Y-56007000D03*
X120650000Y-56007000D03*
X114300000Y-53467000D03*
D12*
X120665000Y-55967000D03*
X113015000Y-55967000D03*
D13*
X109940000Y-56007000D03*
D11*
X119380000Y-53467000D03*
D14*
X116840000Y-58547000D03*
D15*
X111340000Y-58547000D03*
X122340000Y-58547000D03*
D16*
X121920000Y-58547000D03*
X111760000Y-58547000D03*
D11*
X113030000Y-56006999D03*
D17*
X122540000Y-53467000D03*
%TD*%
M02*
